<svg width="158" height="42" viewBox="0 0 158 42" fill="none" xmlns="http://www.w3.org/2000/svg">
<g clip-path="url(#clip0_183_50)">
<path d="M21.5484 0V17.6236L0 0V24.3797L21.5484 42V24.3797L43.0968 42V17.6236" fill="#FABB00"/>
<path d="M57.2981 18.1512L54.6008 13.0344H54.5878L54.6106 18.1512H52.8636V10.101H54.9078L57.605 15.2079H57.6181L57.5952 10.101H59.3422V18.1512H57.2981Z" fill="#432918"/>
<path d="M63.7505 18.1512H60.9586V10.101H63.8681C65.3637 10.101 66.647 10.4527 66.647 12.1185C66.647 13.3861 65.5073 13.8208 65.3539 13.8673V13.8905C65.5073 13.9137 66.8494 14.1925 66.8494 15.7388C66.8494 17.2851 66.0788 18.1545 63.7505 18.1545V18.1512ZM63.6918 11.561H62.8852V13.2501H63.6461C64.3938 13.2501 64.704 12.8983 64.704 12.3342C64.704 11.7701 64.3579 11.561 63.695 11.561H63.6918ZM63.7277 14.7101H62.8852V16.6547H63.6101C64.5016 16.6547 64.9032 16.293 64.9032 15.689C64.9032 14.9656 64.4755 14.7101 63.7277 14.7101Z" fill="#432918"/>
<path d="M72.3418 18.1512C71.3687 16.8471 70.0854 14.8329 70.0854 14.8329H70.0724V18.1512H68.149V10.101H70.0724V13.3961H70.0854L72.2243 10.101H74.4448L71.7475 13.9768C71.7475 13.9768 73.0308 15.8848 74.7517 18.1545H72.3418V18.1512Z" fill="#432918"/>
<path d="M80.9658 18.1512H78.1738V10.101H81.0833C82.5789 10.101 83.8622 10.4527 83.8622 12.1185C83.8622 13.3861 82.7225 13.8208 82.5691 13.8673V13.8905C82.7225 13.9137 84.0646 14.1925 84.0646 15.7388C84.0646 17.2851 83.294 18.1545 80.9658 18.1545V18.1512ZM80.907 11.561H80.1004V13.2501H80.8613C81.609 13.2501 81.9193 12.8983 81.9193 12.3342C81.9193 11.7701 81.5731 11.561 80.9102 11.561H80.907ZM80.9429 14.7101H80.1004V16.6547H80.8253C81.7168 16.6547 82.1184 16.293 82.1184 15.689C82.1184 14.9656 81.6907 14.7101 80.9429 14.7101Z" fill="#432918"/>
<path d="M88.9856 18.1512L88.8909 17.4643C88.5937 17.9223 88.0941 18.3337 87.2157 18.3337C85.5895 18.3337 84.9822 17.0894 84.9822 15.1349C84.9822 13.1804 85.6483 11.936 87.2974 11.936C88.2117 11.936 88.6623 12.3475 88.8778 12.7921H88.8909L88.9725 12.1152H90.6705V18.1512H88.9823H88.9856ZM88.7962 14.7101C88.7962 13.9502 88.3913 13.4558 87.8688 13.4558C87.1798 13.4558 86.9055 14.01 86.9055 14.7599V15.5198C86.9055 16.3759 87.2484 16.8106 87.8198 16.8106C88.45 16.8106 88.7929 16.2664 88.7929 15.5662V14.7101H88.7962Z" fill="#432918"/>
<path d="M95.9344 18.1512V14.5542C95.9344 14.0365 95.7679 13.6018 95.0789 13.6018C94.5205 13.6018 94.0568 14.0365 94.0568 14.5177V18.1512H92.1694V12.1152H93.9621V12.7921H93.9849C93.9849 12.7921 94.625 11.936 95.8723 11.936C96.9401 11.936 97.8218 12.4669 97.8218 13.9635V18.1512H95.9344Z" fill="#432918"/>
<path d="M101.554 18.3304C99.4872 18.3304 98.9288 17.0861 98.9288 15.1183C98.9288 13.1505 99.6308 11.9327 101.73 11.9327C102.563 11.9327 103.239 12.2347 103.288 12.2579L103.206 13.7545C103.148 13.718 102.576 13.4392 101.995 13.4392C101.293 13.4392 100.855 13.9104 100.855 14.8263V15.407C100.855 16.4224 101.355 16.8073 101.972 16.8073C102.482 16.8073 102.909 16.6746 103.291 16.4921L103.373 17.9654C102.864 18.2077 102.292 18.3271 101.554 18.3271V18.3304Z" fill="#432918"/>
<path d="M108.078 18.1512L107.984 17.4643C107.687 17.9223 107.187 18.3337 106.309 18.3337C104.682 18.3337 104.075 17.0894 104.075 15.1349C104.075 13.1804 104.741 11.936 106.39 11.936C107.304 11.936 107.755 12.3475 107.971 12.7921H107.984L108.065 12.1152H109.763V18.1512H108.075H108.078ZM107.889 14.7101C107.889 13.9502 107.484 13.4558 106.962 13.4558C106.273 13.4558 105.998 14.01 105.998 14.7599V15.5198C105.998 16.3759 106.344 16.8106 106.913 16.8106C107.543 16.8106 107.886 16.2664 107.886 15.5662V14.7101H107.889Z" fill="#432918"/>
<path d="M113.009 18.3304C112.271 18.3304 111.608 18.1977 110.955 17.909L111.05 16.4589C111.572 16.7476 112.203 16.9533 112.784 16.9533C113.486 16.9533 113.617 16.7011 113.617 16.4456C113.617 16.1669 113.437 16.0341 112.928 15.855L112.523 15.7222C111.69 15.4335 110.968 14.9491 110.968 13.7777C110.968 12.4968 112.003 11.9294 113.427 11.9294C114.08 11.9294 114.782 12.1119 115.197 12.3044L115.115 13.7545C114.593 13.4757 113.94 13.2965 113.558 13.2965C113.058 13.2965 112.882 13.4658 112.882 13.708C112.882 13.9602 113.084 14.1195 113.62 14.2987L114.025 14.4314C114.822 14.7101 115.52 15.1681 115.52 16.3394C115.52 17.607 114.642 18.3304 113.012 18.3304H113.009Z" fill="#432918"/>
<path d="M118.449 18.3304C117.711 18.3304 117.048 18.1977 116.395 17.909L116.49 16.4589C117.013 16.7476 117.643 16.9533 118.224 16.9533C118.926 16.9533 119.057 16.7011 119.057 16.4456C119.057 16.1669 118.88 16.0341 118.368 15.855L117.963 15.7222C117.13 15.4335 116.405 14.9491 116.405 13.7777C116.405 12.4968 117.437 11.9294 118.864 11.9294C119.517 11.9294 120.219 12.1119 120.634 12.3044L120.552 13.7545C120.03 13.4757 119.377 13.2965 118.995 13.2965C118.495 13.2965 118.319 13.4658 118.319 13.708C118.319 13.9602 118.521 14.1195 119.053 14.2987L119.458 14.4314C120.255 14.7101 120.954 15.1681 120.954 16.3394C120.954 17.607 120.076 18.3304 118.449 18.3304Z" fill="#432918"/>
<path d="M124.853 18.3437C123.06 18.3437 122.146 17.6303 122.146 15.845V12.1152H124.033V15.7123C124.033 16.3992 124.317 16.8106 124.934 16.8106C125.552 16.8106 125.79 16.4124 125.79 15.7123V12.1152H127.677V15.845C127.677 17.5108 126.845 18.3437 124.85 18.3437H124.853Z" fill="#432918"/>
<path d="M132.882 13.7445C132.882 13.7445 132.729 13.6947 132.396 13.6947C131.599 13.6947 131.054 14.2622 131.054 14.9623V18.1479H129.176V12.1119H130.959V12.968H130.972C131.162 12.5831 131.661 11.9294 132.647 11.9294C132.85 11.9294 132.967 11.9526 132.967 11.9526L132.886 13.7379L132.882 13.7445Z" fill="#432918"/>
<path d="M137.542 18.1512L137.448 17.4643C137.15 17.9223 136.651 18.3337 135.772 18.3337C134.146 18.3337 133.539 17.0894 133.539 15.1349C133.539 13.1804 134.205 11.936 135.854 11.936C136.768 11.936 137.219 12.3475 137.434 12.7921H137.448L137.529 12.1152H139.227V18.1512H137.539H137.542ZM137.353 14.7101C137.353 13.9502 136.948 13.4558 136.425 13.4558C135.736 13.4558 135.462 14.01 135.462 14.7599V15.5198C135.462 16.3759 135.808 16.8106 136.376 16.8106C137.007 16.8106 137.35 16.2664 137.35 15.5662V14.7101H137.353Z" fill="#432918"/>
<path d="M144.491 18.1512V14.5542C144.491 14.0365 144.324 13.6018 143.635 13.6018C143.077 13.6018 142.613 14.0365 142.613 14.5177V18.1512H140.726V12.1152H142.519V12.7921H142.542C142.542 12.7921 143.182 11.936 144.429 11.936C145.497 11.936 146.378 12.4669 146.378 13.9635V18.1512H144.491Z" fill="#432918"/>
<path d="M150.111 18.3304C148.044 18.3304 147.485 17.0861 147.485 15.1183C147.485 13.1505 148.187 11.9327 150.287 11.9327C151.12 11.9327 151.796 12.2347 151.845 12.2579L151.763 13.7545C151.704 13.718 151.133 13.4392 150.552 13.4392C149.85 13.4392 149.412 13.9104 149.412 14.8263V15.407C149.412 16.4224 149.912 16.8073 150.529 16.8073C151.038 16.8073 151.466 16.6746 151.848 16.4921L151.93 17.9654C151.42 18.2077 150.849 18.3271 150.111 18.3271V18.3304Z" fill="#432918"/>
<path d="M157.974 15.6393H154.434V15.7123C154.434 16.2664 154.744 16.8471 155.74 16.8471C156.416 16.8471 157.06 16.6646 157.592 16.4257L157.673 17.8758C157.223 18.128 156.475 18.3337 155.512 18.3337C153.184 18.3337 152.589 17.1491 152.589 15.1581C152.589 13.1671 153.337 11.936 155.489 11.936C157.402 11.936 157.997 13.0841 157.997 14.9291C157.997 15.0984 157.974 15.6426 157.974 15.6426V15.6393ZM155.407 13.1771C154.695 13.1771 154.398 13.8175 154.398 14.4314H156.263C156.263 13.8772 156.155 13.1771 155.407 13.1771Z" fill="#432918"/>
<path d="M52.8702 32.639V24.5888H54.8066V32.639H52.8702Z" fill="#432918"/>
<path d="M60.152 32.639V29.042C60.152 28.5243 59.9855 28.0896 59.2965 28.0896C58.7381 28.0896 58.2744 28.5243 58.2744 29.0088V32.6423H56.387V26.6063H58.1797V27.2833H58.2026C58.2026 27.2833 58.8426 26.4271 60.09 26.4271C61.1578 26.4271 62.0394 26.9581 62.0394 28.4546V32.6423H60.152V32.639Z" fill="#432918"/>
<path d="M65.7097 32.8315C64.5113 32.8315 63.953 32.2043 63.9627 30.9832L63.9758 28.1228H62.7774V26.603H63.9758L63.9889 25.1197L65.8665 24.914L65.8534 26.603H67.2445V28.1228H65.8534L65.8404 30.6082C65.8404 31.1524 66.0298 31.3084 66.4575 31.3084C66.7775 31.3084 67.1596 31.1889 67.1596 31.1889L67.2412 32.5527C67.2412 32.5527 66.5751 32.8315 65.7097 32.8315Z" fill="#432918"/>
<path d="M73.3966 30.127H69.8569V30.2C69.8569 30.7542 70.1671 31.3349 71.163 31.3349C71.839 31.3349 72.4822 31.1524 73.0145 30.9135L73.0961 32.3636C72.6455 32.6158 71.8977 32.8215 70.9344 32.8215C68.6062 32.8215 68.0119 31.6369 68.0119 29.6459C68.0119 27.6549 68.7597 26.4238 70.9116 26.4238C72.8251 26.4238 73.4194 27.5719 73.4194 29.4169C73.4194 29.5862 73.3966 30.1304 73.3966 30.1304V30.127ZM70.83 27.6649C70.1181 27.6649 69.8209 28.3053 69.8209 28.9192H71.6855C71.6855 28.365 71.5777 27.6649 70.83 27.6649Z" fill="#432918"/>
<path d="M78.2326 28.2323C78.2326 28.2323 78.0791 28.1825 77.7461 28.1825C76.9493 28.1825 76.404 28.75 76.404 29.4501V32.6357H74.5264V26.5997H76.3093V27.4558H76.3223C76.5117 27.0709 77.0113 26.4172 77.9975 26.4172C78.2 26.4172 78.3175 26.4404 78.3175 26.4404L78.2359 28.2257L78.2326 28.2323Z" fill="#432918"/>
<path d="M86.2753 32.639V29.042C86.2753 28.5243 86.1218 28.0896 85.5504 28.0896C85.0639 28.0896 84.623 28.511 84.623 29.0088V32.6423H82.7356V29.0453C82.7356 28.5276 82.5821 28.0929 82.0107 28.0929C81.5111 28.0929 81.0964 28.5276 81.0964 29.0121V32.6457H79.209V26.6096H81.0017V27.2866H81.0246C81.0246 27.2866 81.6417 26.4305 82.7944 26.4305C83.6728 26.4305 84.1365 26.8154 84.3879 27.3729C84.3879 27.3729 85.0998 26.4305 86.2296 26.4305C87.6076 26.4305 88.166 27.2401 88.166 28.4579V32.6457H86.2786L86.2753 32.639Z" fill="#432918"/>
<path d="M94.6511 30.127H91.1114V30.2C91.1114 30.7542 91.4216 31.3349 92.4175 31.3349C93.0935 31.3349 93.7368 31.1524 94.269 30.9135L94.3507 32.3636C93.9 32.6158 93.1523 32.8215 92.189 32.8215C89.8607 32.8215 89.2664 31.6369 89.2664 29.6459C89.2664 27.6549 90.0142 26.4238 92.1661 26.4238C94.0796 26.4238 94.6739 27.5719 94.6739 29.4169C94.6739 29.5862 94.6511 30.1304 94.6511 30.1304V30.127ZM92.0845 27.6649C91.3726 27.6649 91.0755 28.3053 91.0755 28.9192H92.94C92.94 28.365 92.8322 27.6649 92.0845 27.6649Z" fill="#432918"/>
<path d="M99.5002 32.639L99.4185 31.9621H99.4055C99.0855 32.4101 98.5728 32.8182 97.7075 32.8182C96.0552 32.8182 95.4739 31.5738 95.4739 29.6194C95.4739 27.6649 96.114 26.4205 97.7793 26.4205C98.6936 26.4205 99.1083 26.8187 99.301 27.1339H99.3141V24.1275H101.201V32.639H99.5034H99.5002ZM99.3108 29.1979C99.3108 28.438 98.9059 27.9436 98.3834 27.9436C97.6814 27.9436 97.3973 28.4978 97.3973 29.2477V30.0076C97.3973 30.8637 97.7761 31.2984 98.3344 31.2984C98.9418 31.2984 99.3075 30.7542 99.3075 30.0541V29.1979H99.3108Z" fill="#432918"/>
<path d="M103.68 26.1451C103.063 26.1451 102.55 25.6374 102.55 25.0102C102.55 24.383 103.06 23.8621 103.68 23.8621C104.3 23.8621 104.797 24.3698 104.797 25.0102C104.797 25.6506 104.297 26.1451 103.68 26.1451ZM102.743 32.639V26.603H104.62V32.639H102.743Z" fill="#432918"/>
<path d="M109.786 32.639L109.692 31.9521C109.394 32.4101 108.895 32.8215 108.016 32.8215C106.39 32.8215 105.783 31.5772 105.783 29.6227C105.783 27.6682 106.449 26.4238 108.098 26.4238C109.012 26.4238 109.463 26.8353 109.678 27.2799H109.692L109.773 26.603H111.471V32.639H109.783H109.786ZM109.597 29.1979C109.597 28.438 109.192 27.9436 108.669 27.9436C107.98 27.9436 107.706 28.4977 107.706 29.2477V30.0076C107.706 30.8637 108.052 31.2984 108.62 31.2984C109.251 31.2984 109.594 30.7542 109.594 30.054V29.1979H109.597Z" fill="#432918"/>
<path d="M116.653 28.2323C116.653 28.2323 116.5 28.1825 116.167 28.1825C115.37 28.1825 114.825 28.75 114.825 29.4501V32.6357H112.947V26.5997H114.73V27.4558H114.743C114.933 27.0709 115.432 26.4172 116.418 26.4172C116.621 26.4172 116.738 26.4404 116.738 26.4404L116.657 28.2257L116.653 28.2323Z" fill="#432918"/>
<path d="M120.219 35.1145H118.201C118.867 33.6312 119.21 32.639 119.21 32.639L117 26.603H118.936L120.17 30.8405H120.183L121.525 26.603H123.39C123.39 26.603 121.787 31.2619 120.219 35.1145Z" fill="#432918"/>
<path d="M126.943 32.639V24.5888H128.866V31.096L131.704 31.1093V32.6423H126.939L126.943 32.639Z" fill="#432918"/>
<path d="M134.927 32.8315C133.728 32.8315 133.17 32.2043 133.18 30.9832L133.193 28.1228H131.994V26.603H133.193L133.206 25.1197L135.083 24.914L135.07 26.603H136.461V28.1228H135.07L135.057 30.6082C135.057 31.1524 135.247 31.3084 135.674 31.3084C135.994 31.3084 136.376 31.1889 136.376 31.1889L136.458 32.5527C136.458 32.5527 135.792 32.8315 134.927 32.8315Z" fill="#432918"/>
<path d="M141.294 32.639L141.213 31.9621H141.199C140.879 32.4101 140.367 32.8182 139.501 32.8182C137.849 32.8182 137.268 31.5738 137.268 29.6194C137.268 27.6649 137.908 26.4205 139.573 26.4205C140.488 26.4205 140.902 26.8187 141.095 27.1339H141.108V24.1275H142.995V32.639H141.297H141.294ZM141.105 29.1979C141.105 28.438 140.7 27.9436 140.177 27.9436C139.475 27.9436 139.191 28.4978 139.191 29.2477V30.0076C139.191 30.8637 139.57 31.2984 140.128 31.2984C140.736 31.2984 141.101 30.7542 141.101 30.0541V29.1979H141.105Z" fill="#432918"/>
</g>
<defs>
<clipPath id="clip0_183_50">
<rect width="158" height="42" fill="white"/>
</clipPath>
</defs>
</svg>
