<svg width="90" height="48" viewBox="0 0 90 48" fill="none" xmlns="http://www.w3.org/2000/svg">
<path d="M16.2023 0V13.8161L0 0V19.114L16.2023 32.9278V19.114L32.4045 32.9278V13.8161" fill="#FFAA00"/>
<path d="M46.2802 4.92566V10.319H46.2554L42.3006 4.92566H40.5062V13.8161H42.4723V8.44921H42.4961L46.4622 13.8161H48.2486V4.92566" fill="#30120B"/>
<path d="M59.4983 12.4578C58.9424 12.4578 58.8553 12.0498 58.8553 11.3832V8.88365H60.5311V7.57697H58.87V5.69568L56.9808 6.1163V7.57697H56.113V8.88365H56.9672V11.343C56.9672 12.3934 56.9943 12.9198 57.3966 13.4116C57.7356 13.8219 58.3005 13.9862 59.0101 13.9862C59.565 13.9908 60.1146 13.8772 60.6237 13.653L60.8644 13.538L60.6135 12.2302C60.3311 12.3187 59.8768 12.4601 59.5017 12.4601" fill="#30120B"/>
<path d="M62.4859 6.8334C62.0056 6.8334 61.4633 6.48863 61.4633 5.87379C61.4633 5.25895 61.9683 4.8866 62.4859 4.8866C63.0034 4.8866 63.4938 5.24631 63.4938 5.86C63.4938 6.47369 62.965 6.8334 62.4859 6.8334Z" fill="#30120B"/>
<path d="M63.4418 7.5769H61.5503V13.8161H63.4418V7.5769Z" fill="#30120B"/>
<path d="M75.3401 7.39758C74.6076 7.39903 73.8971 7.6526 73.3243 8.117L73.2113 7.57686H71.5458V13.8149H73.4373V9.62594C73.7995 9.31887 74.2519 9.14336 74.7232 9.12718C75.3017 9.12718 75.4407 9.48689 75.4407 10.0236V13.816H77.3345V9.67881C77.3345 8.28134 76.7277 7.39758 75.3401 7.39758Z" fill="#30120B"/>
<path d="M85.67 4.99341V13.8149H87.5627V4.57739" fill="#30120B"/>
<path d="M53.4847 11.8934C53.3345 12.0865 52.8802 12.4312 52.4271 12.4312C51.4701 12.4312 51.2667 11.4831 51.2667 10.689C51.2667 9.49953 51.8475 8.98812 52.4667 8.98812C52.8441 8.98812 53.2576 9.21797 53.4836 9.42253L53.4847 11.8934ZM55.5661 12.5266C55.4294 12.5266 55.3774 12.4358 55.3774 12.3083V7.57801H53.7424L53.6124 8.11585C53.348 7.73086 52.7785 7.39758 52.0757 7.39758C50.6881 7.39758 49.3017 8.54682 49.3017 10.8188C49.3017 12.522 50.1469 13.9827 51.9616 13.9827C52.5797 13.9827 53.3864 13.6253 53.7266 13.2265H53.7514C53.9141 13.5977 54.2158 13.816 54.9616 13.816H55.9322V12.5266" fill="#30120B"/>
<path d="M82.3932 11.8934C82.2429 12.0865 81.7898 12.4312 81.3356 12.4312C80.3785 12.4312 80.1751 11.4831 80.1751 10.689C80.1751 9.49953 80.7548 8.98812 81.3729 8.98812C81.75 9.01355 82.1079 9.16646 82.3898 9.42253L82.3932 11.8934ZM84.4745 12.5266C84.3356 12.5266 84.2858 12.4358 84.2858 12.3083V7.57801H82.6486L82.5197 8.11585C82.2553 7.73086 81.687 7.39758 80.9808 7.39758C79.5966 7.39758 78.2079 8.54682 78.2079 10.8188C78.2079 12.522 79.0542 13.9827 80.8689 13.9827C81.4847 13.9827 82.2938 13.6253 82.6339 13.2265H82.6587C82.8226 13.5977 83.1254 13.816 83.8689 13.816H84.8373V12.5266" fill="#30120B"/>
<path d="M67.4689 12.4715C66.5367 12.4715 66.2701 11.613 66.2701 10.6649C66.2701 9.71677 66.5729 8.90885 67.5051 8.90885C68.4373 8.90885 68.7006 9.7432 68.7006 10.6879C68.7006 11.6325 68.3977 12.468 67.4644 12.468L67.4689 12.4715ZM67.5288 7.39417C65.4836 7.39417 64.313 8.78933 64.313 10.6741C64.313 12.5818 65.3085 13.9793 67.4395 13.9793C69.4825 13.9793 70.6531 12.583 70.6531 10.6994C70.6531 8.78933 69.6576 7.39417 67.5288 7.39417Z" fill="#30120B"/>
<path d="M44.3005 23.6742C43.9651 23.7722 43.6165 23.8153 43.2678 23.8018H42.4859V21.4091C42.6859 21.4091 42.9638 21.3976 43.1152 21.3976C43.6068 21.3976 43.9729 21.4091 44.339 21.5757C44.7051 21.7424 44.957 22.1009 44.957 22.6388C44.9668 22.8592 44.9089 23.0772 44.7912 23.2626C44.6736 23.4479 44.5021 23.5914 44.3005 23.6731V23.6742ZM42.4859 18.0028H43.1039C43.8723 18.0028 44.339 18.3085 44.339 18.9221C44.339 19.7266 43.9096 20.0001 42.9638 20.0001H42.4859V18.0028ZM44.9435 20.5012V20.4874C45.8147 20.2943 46.2994 19.5129 46.2994 18.6486C46.2994 17.1351 45.2034 16.4651 42.9593 16.4651H40.5073V25.3544H43.4045C45.2203 25.3544 46.9853 24.8556 46.9853 22.7284C46.9853 21.4493 46.1288 20.6276 44.9435 20.5012Z" fill="#30120B"/>
<path d="M65.7085 21.7687L67.5989 19.1174H65.5537L64.0181 21.6147H63.9943V16.1122L62.1039 16.5317V25.3543H63.9943V22.4973H64.0181L65.5898 25.3543H67.8497" fill="#30120B"/>
<path d="M58.8881 18.9359C58.1549 18.9379 57.4435 19.19 56.8678 19.6519L56.7616 19.1152H55.0927V25.3521H56.9842V21.1654C57.3463 20.8583 57.7988 20.6828 58.2701 20.6667C58.8486 20.6667 58.9887 21.0264 58.9887 21.5642V25.3567H60.878V21.2194C60.878 19.8231 60.2746 18.9382 58.8881 18.9382" fill="#30120B"/>
<path d="M51.8147 23.434C51.6644 23.626 51.2113 23.9719 50.757 23.9719C49.7989 23.9719 49.5966 23.0238 49.5966 22.2308C49.5966 21.0379 50.1774 20.5253 50.7955 20.5253C51.1717 20.5253 51.5864 20.7552 51.8124 20.9609L51.8147 23.434ZM53.8983 24.0615C53.7616 24.0615 53.7096 23.9719 53.7096 23.8443V19.1187H52.0712L51.9424 19.6519C51.678 19.2669 51.1096 18.9325 50.4056 18.9325C49.0169 18.9325 47.6305 20.0817 47.6305 22.3538C47.6305 24.0569 48.4746 25.5164 50.2904 25.5164C50.9085 25.5164 51.7152 25.1579 52.0565 24.7614H52.0813C52.2452 25.1338 52.5457 25.351 53.2915 25.351H54.2621V24.0615" fill="#30120B"/>
<path d="M3.43051 46.4957L2.97853 45.1592H0.845198L0.39322 46.4957H0L1.73446 41.6023H2.1096L3.85085 46.4992L3.43051 46.4957ZM1.91412 42.047H1.90621L0.981921 44.7776H2.83842L1.91412 42.047Z" fill="#1A1818"/>
<path d="M7.5921 46.5761C7.17177 46.5799 6.75631 46.4843 6.37854 46.2968L6.40001 45.8498C6.75446 46.0568 7.15515 46.168 7.56385 46.1727C8.35481 46.1727 8.75594 45.7613 8.75594 45.2395C8.75594 44.7178 8.28588 44.4247 7.72995 44.2052L7.56385 44.1386C6.94916 43.8972 6.4147 43.5812 6.4147 42.7595C6.4147 41.9815 7.00792 41.5195 7.91074 41.5195C8.27314 41.5076 8.63286 41.5865 8.9582 41.7493L8.92656 42.1768C8.6186 42.0198 8.28101 41.932 7.93673 41.9194C7.28588 41.9194 6.83052 42.155 6.83052 42.7561C6.83052 43.2778 7.20566 43.5123 7.80566 43.7478L7.97289 43.8133C8.68023 44.0926 9.17176 44.4822 9.17176 45.2453C9.17176 46.0084 8.59662 46.5761 7.5921 46.5761Z" fill="#1A1818"/>
<path d="M11.5152 46.5831C10.461 46.5831 10.1593 45.974 10.1593 45.0638V42.8251H10.5424V45.0787C10.5424 45.7614 10.7955 46.2165 11.5254 46.2165C12.2904 46.2165 12.4938 45.7683 12.4938 45.0787V42.8251H12.8757V45.0638C12.8734 46.0038 12.4836 46.5831 11.5152 46.5831Z" fill="#1A1818"/>
<path d="M15.5683 46.5762C15.3445 46.5829 15.1233 46.526 14.9295 46.4119C14.7356 46.2978 14.5769 46.131 14.4712 45.9303H14.4633L14.435 46.4957H14.0734C14.1009 46.144 14.1103 45.7911 14.1017 45.4384V41.3196H14.4847V43.3882H14.4926C14.7186 43.0802 14.9762 42.7492 15.6407 42.7492C16.6576 42.7492 16.9706 43.6226 16.9706 44.6363C16.9706 45.6499 16.6384 46.5762 15.5683 46.5762ZM16.5661 44.403C16.5661 43.6249 16.1683 43.1112 15.5491 43.1112C14.9717 43.1112 14.487 43.6686 14.487 44.2605V45.0167C14.487 45.7142 15.0214 46.213 15.5344 46.213C16.2723 46.213 16.5683 45.597 16.5683 44.8627L16.5661 44.403Z" fill="#1A1818"/>
<path d="M18.704 46.5762C18.3691 46.5791 18.0397 46.4901 17.7503 46.3187L17.7797 45.9372C18.0615 46.1163 18.3864 46.2129 18.7187 46.2164C19.348 46.2164 19.6079 45.9234 19.6079 45.5637C19.6079 45.1442 19.2825 44.9833 18.817 44.7925L18.591 44.6972C18.139 44.5064 17.7673 44.2375 17.7673 43.6904C17.7673 43.1986 18.0859 42.7435 18.9514 42.7435C19.2612 42.739 19.5663 42.8204 19.8339 42.9791L19.8045 43.3755C19.5468 43.2032 19.2463 43.1088 18.9379 43.1032C18.3955 43.1032 18.1639 43.333 18.1639 43.6617C18.1639 44.0134 18.4238 44.1823 18.9447 44.3949L19.1706 44.4914C19.661 44.7052 20 44.9603 20 45.5189C20.0057 46.1429 19.5932 46.5762 18.704 46.5762Z" fill="#1A1818"/>
<path d="M21.2181 42.062C21.1561 42.0622 21.0954 42.0437 21.0437 42.0088C20.9921 41.9739 20.9518 41.9242 20.928 41.866C20.9041 41.8078 20.8978 41.7437 20.9099 41.6818C20.9219 41.62 20.9518 41.5631 20.9956 41.5185C21.0394 41.4739 21.0953 41.4436 21.1561 41.4314C21.217 41.4191 21.28 41.4255 21.3372 41.4497C21.3945 41.474 21.4433 41.515 21.4776 41.5675C21.5119 41.62 21.5301 41.6817 21.5299 41.7448C21.5293 41.8287 21.4963 41.909 21.4379 41.9684C21.3796 42.0278 21.3006 42.0614 21.2181 42.062ZM21.0237 46.4957V42.8251H21.4068V46.4957H21.0237Z" fill="#1A1818"/>
<path d="M24.9254 46.4957L24.8893 45.9372H24.8813C24.6723 46.2532 24.3909 46.5762 23.7514 46.5762C22.7254 46.5762 22.4079 45.7028 22.4079 44.6891C22.4079 43.6755 22.7401 42.7446 23.809 42.7446C24.025 42.7369 24.2388 42.7895 24.4273 42.897C24.6158 43.0044 24.7717 43.1624 24.878 43.3537H24.8847V41.3196H25.2678V45.4901C25.2612 45.8258 25.2733 46.1615 25.3039 46.4957H24.9254ZM24.8893 44.3122C24.8893 43.6146 24.3548 43.1158 23.8633 43.1158C23.1265 43.1158 22.8158 43.733 22.8158 44.4662V44.9259C22.8158 45.7051 23.2124 46.2188 23.8328 46.2188C24.3977 46.2188 24.8881 45.6602 24.8881 45.081L24.8893 44.3122Z" fill="#1A1818"/>
<path d="M26.7311 42.062C26.6477 42.0629 26.5673 42.0302 26.5076 41.9709C26.4478 41.9117 26.4136 41.8308 26.4124 41.746C26.4099 41.7023 26.4161 41.6586 26.4307 41.6175C26.4454 41.5764 26.4682 41.5388 26.4976 41.5069C26.5271 41.4751 26.5627 41.4497 26.6021 41.4324C26.6416 41.4151 26.6841 41.4061 26.7271 41.4061C26.7701 41.4061 26.8126 41.4151 26.8521 41.4324C26.8916 41.4497 26.9271 41.4751 26.9566 41.5069C26.9861 41.5388 27.0088 41.5764 27.0235 41.6175C27.0382 41.6586 27.0444 41.7023 27.0418 41.746C27.0409 41.8295 27.0079 41.9094 26.9498 41.9684C26.8917 42.0275 26.8132 42.0611 26.7311 42.062ZM26.5367 46.4957V42.8251H26.9186V46.4957H26.5367Z" fill="#1A1818"/>
<path d="M30.4305 46.4957L30.4012 45.9154H30.3955C30.1786 46.2601 29.9187 46.5762 29.2757 46.5762C28.2644 46.5762 27.9198 45.7028 27.9198 44.6891C27.9198 43.6755 28.2746 42.7446 29.3288 42.7446C29.5492 42.7367 29.7671 42.7933 29.9566 42.9078C30.1461 43.0224 30.2993 43.1899 30.3978 43.3905H30.4045L30.4271 42.8251H30.7955C30.766 43.174 30.7539 43.5242 30.7593 43.8743V45.4901C30.7593 46.1061 30.7955 46.4957 30.7955 46.4957H30.4305ZM30.3797 44.3122C30.3797 43.6146 29.8882 43.1158 29.3831 43.1158C28.6384 43.1158 28.3277 43.733 28.3277 44.4662V44.9259C28.3277 45.7051 28.7322 46.2188 29.3537 46.2188C29.9243 46.2188 30.3797 45.6602 30.3797 45.081V44.3122Z" fill="#1A1818"/>
<path d="M33.5514 43.1549C33.4866 43.1463 33.4213 43.1417 33.3559 43.1411C33.0883 43.1465 32.8329 43.2561 32.6423 43.4472C32.4516 43.6383 32.3402 43.8964 32.3311 44.1685V46.4957H31.948V42.8251H32.3231V43.4342H32.3299C32.4334 43.2263 32.5916 43.0517 32.7869 42.9299C32.9823 42.8082 33.207 42.744 33.4361 42.7446C33.482 42.7458 33.5277 42.7504 33.5729 42.7584L33.5514 43.1549Z" fill="#1A1818"/>
<path d="M35.1695 48.0001H34.7175C35.0791 47.3025 35.4181 46.4957 35.4181 46.4957L33.9875 42.8251H34.4147L35.5988 46.0625H35.6056L36.7977 42.8251H37.2101C37.2101 42.8251 36.1582 45.805 35.1695 48.0001Z" fill="#1A1818"/>
<path d="M40.9932 46.5761C39.9164 46.5761 39.5345 45.8279 39.5345 44.6753C39.5345 43.5513 39.9458 42.7434 41.0226 42.7434C42.0995 42.7434 42.4859 43.4927 42.4859 44.6454C42.4859 45.7762 42.0701 46.5761 40.9932 46.5761ZM42.0769 44.4109C42.0769 43.5812 41.6791 43.1031 41.0147 43.1031C40.3503 43.1031 39.939 43.6099 39.939 44.4397V44.9097C39.939 45.7395 40.3288 46.2164 41 46.2164C41.6712 46.2164 42.0769 45.7107 42.0769 44.881V44.4109Z" fill="#1A1818"/>
<path d="M44.2079 43.1767V46.4957H43.826V43.1767H42.9288V42.825H43.8249V42.2918C43.8249 41.6666 44.1062 41.2345 44.7424 41.2345C44.8807 41.2393 45.0185 41.2539 45.1548 41.2782L45.1322 41.631C45.011 41.6061 44.8876 41.5937 44.7639 41.5942C44.3593 41.5942 44.2079 41.8953 44.2079 42.3136V42.8204H45.2339V43.1721L44.2079 43.1767Z" fill="#1A1818"/>
<path d="M50.1978 46.4957C49.2509 45.4534 48.0667 44.0513 48.0667 44.0513V46.4957H47.6689V41.6023H48.0667V43.8893L50.0249 41.6023H50.5447L48.5108 43.9663C48.5108 43.9663 49.356 44.95 50.7706 46.4946L50.1978 46.4957Z" fill="#1A1818"/>
<path d="M52.9582 46.5761C51.4339 46.5761 51.2249 45.3361 51.2249 44.065C51.2249 42.8687 51.4407 41.5183 53.0452 41.5183C53.3967 41.5141 53.7439 41.5974 54.0565 41.7608L54.035 42.1792C53.7367 42.0169 53.4049 41.9287 53.0667 41.9217C52.1345 41.9217 51.6362 42.517 51.6362 43.6456V44.4385C51.6362 45.6429 52.1785 46.1716 53.0667 46.1716C53.4497 46.1716 53.7604 46.0026 54.0836 45.8119L54.113 46.2451C53.7668 46.4648 53.3662 46.5796 52.9582 46.5761Z" fill="#1A1818"/>
<path d="M56.1876 46.4957H54.9808V41.6023H56.2237C56.9175 41.6023 57.6395 41.8321 57.6395 42.7619C57.6395 43.4514 57.2926 43.7318 56.7864 43.8858V43.8927C57.27 43.9743 57.7909 44.2524 57.7909 45.0672C57.7909 46.0406 57.2135 46.4957 56.1876 46.4957ZM56.2022 41.9804H55.3785V43.7353H56.1152C56.8305 43.7353 57.2282 43.4054 57.2282 42.8032C57.2282 42.1643 56.8011 41.9804 56.2022 41.9804ZM56.1446 44.1306H55.3785V46.1188H56.1582C56.9017 46.1188 57.3785 45.8556 57.3785 45.1212C57.3785 44.4087 56.9085 44.1306 56.1424 44.1306H56.1446Z" fill="#1A1818"/>
<path d="M62.1051 46.5761C60.5797 46.5761 60.4 45.328 60.4 44.065C60.4 42.8986 60.5876 41.5183 62.2995 41.5183C62.7139 41.5123 63.1235 41.6106 63.4916 41.8045L63.4622 42.2309C63.1128 42.0334 62.7206 41.9271 62.3209 41.9217C61.304 41.9217 60.8113 42.5239 60.8113 43.6685V44.4546C60.8113 45.7314 61.3966 46.1727 62.1481 46.1727C62.5089 46.1693 62.8644 46.0841 63.1887 45.9233V44.3604H62.2351V43.957H63.591V46.1405C63.1489 46.4319 62.6318 46.5835 62.1051 46.5761Z" fill="#1A1818"/>
<path d="M66.3277 43.1549C66.2628 43.1463 66.1976 43.1417 66.1322 43.1411C65.8645 43.1465 65.6089 43.256 65.4181 43.4471C65.2273 43.6382 65.1157 43.8963 65.1062 44.1685V46.4957H64.7231V42.8251H65.0983V43.4342H65.1062C65.2093 43.2262 65.3672 43.0515 65.5624 42.9297C65.7576 42.8079 65.9823 42.7438 66.2113 42.7446C66.2571 42.7458 66.3028 42.7504 66.348 42.7584L66.3277 43.1549Z" fill="#1A1818"/>
<path d="M68.4113 46.5761C67.3344 46.5761 66.9525 45.8279 66.9525 44.6753C66.9525 43.5513 67.3638 42.7434 68.4406 42.7434C69.5175 42.7434 69.8994 43.4927 69.8994 44.6454C69.9005 45.7762 69.4915 46.5761 68.4113 46.5761ZM69.4915 44.4109C69.4915 43.5812 69.0949 43.1031 68.4293 43.1031C67.7638 43.1031 67.3536 43.6099 67.3536 44.4397V44.9097C67.3536 45.7395 67.7435 46.2164 68.4147 46.2164C69.0858 46.2164 69.4915 45.7107 69.4915 44.881V44.4109Z" fill="#1A1818"/>
<path d="M72.2407 46.5831C71.1865 46.5831 70.8848 45.974 70.8848 45.0638V42.8251H71.2678V45.0787C71.2678 45.7614 71.5209 46.2165 72.2509 46.2165C73.0158 46.2165 73.2181 45.7683 73.2181 45.0787V42.8251H73.6011V45.0638C73.5989 46.0038 73.2091 46.5831 72.2407 46.5831Z" fill="#1A1818"/>
<path d="M76.2147 46.5762C75.9983 46.5849 75.7837 46.5329 75.5943 46.4259C75.405 46.3188 75.2483 46.1609 75.1413 45.9694V48.0024H74.7571V42.8308H75.1266V43.4181H75.1334C75.3503 43.0733 75.6384 42.7504 76.2814 42.7504C77.2983 42.7504 77.6181 43.6238 77.6181 44.6363C77.6181 45.6487 77.2882 46.5762 76.2147 46.5762ZM77.2113 44.403C77.2113 43.6249 76.8215 43.1112 76.1944 43.1112C75.6373 43.1112 75.139 43.6686 75.139 44.249V45.0121C75.139 45.7096 75.6735 46.2096 76.165 46.2096C76.9017 46.2096 77.2125 45.5924 77.2125 44.8581L77.2113 44.403Z" fill="#1A1818"/>
<path d="M81.4961 44.5064H80.774V46.4957H80.3763V41.6023H81.6113C82.5797 41.6023 83.165 42.0287 83.165 43.0124C83.1639 44.0214 82.5797 44.5064 81.4961 44.5064ZM81.5831 41.9781H80.7661V44.1306H81.4599C82.4768 44.1306 82.7458 43.7042 82.7458 43.0434C82.7458 42.3033 82.3729 41.9804 81.5819 41.9804L81.5831 41.9781Z" fill="#1A1818"/>
<path d="M84.0904 46.4957V41.6023H84.4802V46.0958L86.4599 46.1027V46.4992L84.0904 46.4957Z" fill="#1A1818"/>
<path d="M88.8441 46.5762C87.3198 46.5762 87.1096 45.3362 87.1096 44.0651C87.1096 42.8688 87.3266 41.5184 88.9311 41.5184C89.2845 41.5132 89.6337 41.5965 89.948 41.7609L89.9209 42.1769C89.6226 42.0147 89.2908 41.9265 88.9526 41.9195C88.0204 41.9195 87.5221 42.5148 87.5221 43.6433V44.4363C87.5221 45.6407 88.0644 46.1694 88.9526 46.1694C89.3356 46.1694 89.6463 46.0004 89.9695 45.8096L89.9978 46.2429C89.6521 46.4632 89.252 46.5788 88.8441 46.5762Z" fill="#1A1818"/>
</svg>
