<svg width="52" height="52" viewBox="0 0 52 52" fill="none" xmlns="http://www.w3.org/2000/svg">
<rect width="52" height="52" rx="5" fill="#3C251F"/>
<path d="M39.2031 37.673L31.8204 30.2903C33.4787 28.2402 34.2871 25.632 34.0791 23.0035C33.8711 20.3749 32.6625 17.9263 30.7025 16.1626C28.7425 14.3988 26.1805 13.4542 23.5446 13.5236C20.9088 13.593 18.4 14.671 16.5355 16.5355C14.671 18.4 13.593 20.9088 13.5236 23.5447C13.4542 26.1805 14.3987 28.7425 16.1625 30.7026C17.9263 32.6626 20.3749 33.8711 23.0035 34.0791C25.632 34.2871 28.2402 33.4787 30.2903 31.8205L37.6729 39.2031C37.8759 39.406 38.1511 39.52 38.438 39.52C38.725 39.52 39.0002 39.406 39.2031 39.2031C39.406 39.0002 39.52 38.725 39.52 38.438C39.52 38.1511 39.406 37.8759 39.2031 37.673ZM23.8342 31.9483C22.2294 31.9483 20.6607 31.4724 19.3264 30.5808C17.992 29.6892 16.952 28.422 16.3379 26.9394C15.7238 25.4567 15.5631 23.8253 15.8762 22.2513C16.1892 20.6774 16.962 19.2316 18.0968 18.0968C19.2315 16.9621 20.6773 16.1893 22.2513 15.8762C23.8252 15.5631 25.4567 15.7238 26.9393 16.3379C28.422 16.9521 29.6892 17.992 30.5808 19.3264C31.4724 20.6607 31.9482 22.2295 31.9482 23.8343C31.9464 25.9857 31.0909 28.0484 29.5696 29.5697C28.0484 31.0909 25.9856 31.9464 23.8342 31.9483Z" fill="#FFAA00"/>
</svg>
