<svg width="561" height="246" viewBox="0 0 561 246" fill="none" xmlns="http://www.w3.org/2000/svg">
<rect width="561" height="246" fill="#30120B" fill-opacity="0.8"/>
<rect y="45" width="9" height="74" fill="#FFBA00"/>
<path d="M78.088 167L72.52 150.992H70.456L64.864 167H66.736L68.104 162.824H74.752L76.12 167H78.088ZM74.224 161.192H68.632L71.416 152.84H71.44L74.224 161.192ZM93.0417 156.56V155H89.7537V153.512C89.7537 152.216 90.2817 151.352 91.5057 151.352C92.1777 151.352 92.6817 151.472 92.6817 151.472L92.8017 149.96C92.8017 149.96 92.0097 149.816 91.2657 149.816C89.0577 149.816 87.9537 151.16 87.9537 153.344V155H85.0977V156.56H87.9537V167H89.7537V156.56H93.0417ZM97.0186 167V155H95.2186V167H97.0186ZM97.4266 151.544C97.4266 150.824 96.8506 150.248 96.1306 150.248C95.4106 150.248 94.8346 150.824 94.8346 151.544C94.8346 152.264 95.4106 152.84 96.1306 152.84C96.8506 152.84 97.4266 152.264 97.4266 151.544ZM110.273 167V158.744C110.273 156.2 109.145 154.712 106.457 154.712C103.985 154.712 102.641 156.704 102.641 156.704H102.617V155H100.841V167H102.665V159.32C102.665 157.832 104.201 156.392 105.905 156.392C108.089 156.392 108.449 157.856 108.449 159.272V167H110.273ZM123.207 167C123.207 167 123.135 165.368 123.135 163.712V158.432C123.135 156.44 123.207 155 123.207 155H121.527L121.431 156.728H121.407C120.927 155.84 119.943 154.712 117.927 154.712C114.447 154.712 113.247 157.712 113.247 161.072C113.247 164.504 114.399 167.288 117.759 167.288C119.799 167.288 120.711 166.304 121.383 165.224H121.407L121.527 167H123.207ZM121.335 162.248C121.335 164.024 119.991 165.68 118.215 165.68C116.343 165.68 115.143 164.192 115.143 161.816V160.328C115.143 158.12 116.079 156.32 118.311 156.32C119.871 156.32 121.335 157.808 121.335 159.92V162.248ZM136.335 167V158.744C136.335 156.2 135.207 154.712 132.519 154.712C130.047 154.712 128.703 156.704 128.703 156.704H128.679V155H126.903V167H128.727V159.32C128.727 157.832 130.263 156.392 131.967 156.392C134.151 156.392 134.511 157.856 134.511 159.272V167H136.335ZM147.013 166.52L146.893 164.936C146.173 165.368 145.213 165.704 144.133 165.704C142.549 165.704 141.133 164.384 141.133 161.768V160.256C141.133 157.712 142.381 156.296 144.085 156.296C145.309 156.296 146.269 156.752 146.797 157.016L146.893 155.432C146.485 155.192 145.477 154.712 144.061 154.712C140.509 154.712 139.237 157.328 139.237 161C139.237 164.72 140.317 167.288 143.821 167.288C145.285 167.288 146.221 166.976 147.013 166.52ZM151.839 167V155H150.039V167H151.839ZM152.247 151.544C152.247 150.824 151.671 150.248 150.951 150.248C150.231 150.248 149.655 150.824 149.655 151.544C149.655 152.264 150.231 152.84 150.951 152.84C151.671 152.84 152.247 152.264 152.247 151.544ZM164.949 167C164.949 167 164.877 165.368 164.877 163.712V158.432C164.877 156.44 164.949 155 164.949 155H163.269L163.173 156.728H163.149C162.669 155.84 161.685 154.712 159.669 154.712C156.189 154.712 154.989 157.712 154.989 161.072C154.989 164.504 156.141 167.288 159.501 167.288C161.541 167.288 162.453 166.304 163.125 165.224H163.149L163.269 167H164.949ZM163.077 162.248C163.077 164.024 161.733 165.68 159.957 165.68C158.085 165.68 156.885 164.192 156.885 161.816V160.328C156.885 158.12 157.821 156.32 160.053 156.32C161.613 156.32 163.077 157.808 163.077 159.92V162.248ZM170.517 167V150.08H168.693V167H170.517ZM187.19 163.712C187.19 161.792 186.014 160.928 184.358 160.28L183.59 159.968C181.982 159.344 181.238 158.84 181.238 157.808C181.238 156.872 181.91 156.2 183.542 156.2C184.19 156.2 185.27 156.392 186.47 157.112L186.59 155.48C185.894 155.096 184.838 154.712 183.518 154.712C180.662 154.712 179.366 156.128 179.366 157.928C179.366 159.848 180.638 160.736 182.198 161.336L182.966 161.648C184.43 162.2 185.342 162.68 185.342 163.88C185.342 164.912 184.622 165.776 182.678 165.776C181.478 165.776 180.494 165.416 179.462 164.84L179.342 166.448C180.374 167 181.478 167.288 182.726 167.288C185.75 167.288 187.19 165.872 187.19 163.712ZM199.543 167C199.543 167 199.471 165.368 199.471 163.712V158.432C199.471 156.44 199.543 155 199.543 155H197.863L197.767 156.728H197.743C197.263 155.84 196.279 154.712 194.263 154.712C190.783 154.712 189.583 157.712 189.583 161.072C189.583 164.504 190.735 167.288 194.095 167.288C196.135 167.288 197.047 166.304 197.719 165.224H197.743L197.863 167H199.543ZM197.671 162.248C197.671 164.024 196.327 165.68 194.551 165.68C192.679 165.68 191.479 164.192 191.479 161.816V160.328C191.479 158.12 192.415 156.32 194.647 156.32C196.207 156.32 197.671 157.808 197.671 159.92V162.248ZM209.479 156.56V155H206.191V153.512C206.191 152.216 206.719 151.352 207.943 151.352C208.615 151.352 209.119 151.472 209.119 151.472L209.239 149.96C209.239 149.96 208.447 149.816 207.703 149.816C205.495 149.816 204.391 151.16 204.391 153.344V155H201.535V156.56H204.391V167H206.191V156.56H209.479ZM220.368 160.088C220.368 155.744 218.184 154.712 215.904 154.712C212.328 154.712 210.792 157.328 210.792 161.024C210.792 164.648 211.824 167.288 215.904 167.288C217.464 167.288 218.832 166.952 219.768 166.376L219.672 164.792C218.64 165.344 217.44 165.728 216.096 165.728C213.552 165.728 212.664 163.88 212.664 161.96V161.432H220.32C220.32 161.432 220.368 160.328 220.368 160.088ZM218.592 159.992H212.64C212.64 158.12 213.624 156.176 215.856 156.176C218.16 156.176 218.592 158 218.592 159.992ZM229.565 166.784L229.469 165.368C229.469 165.368 228.509 165.776 227.717 165.776C226.685 165.776 226.253 165.152 226.253 164.096L226.277 156.56H229.565V155H226.301V151.64L224.477 151.88V155H221.621V156.56H224.477L224.429 164.288C224.429 166.232 225.221 167.288 227.261 167.288C228.485 167.288 229.565 166.784 229.565 166.784ZM242.119 155H240.247L236.575 165.128H236.551L232.927 155H230.959L235.663 167C235.663 167 234.607 169.496 233.383 171.92H235.423C238.663 164.648 242.119 155 242.119 155ZM259.663 167V158.744C259.663 156.2 258.535 154.712 255.847 154.712C253.375 154.712 252.031 156.704 252.031 156.704H252.007V155H250.231V167H252.055V159.32C252.055 157.832 253.591 156.392 255.295 156.392C257.479 156.392 257.839 157.856 257.839 159.272V167H259.663ZM272.142 160.088C272.142 155.744 269.958 154.712 267.678 154.712C264.102 154.712 262.566 157.328 262.566 161.024C262.566 164.648 263.598 167.288 267.678 167.288C269.238 167.288 270.606 166.952 271.542 166.376L271.446 164.792C270.414 165.344 269.214 165.728 267.87 165.728C265.326 165.728 264.438 163.88 264.438 161.96V161.432H272.094C272.094 161.432 272.142 160.328 272.142 160.088ZM270.366 159.992H264.414C264.414 158.12 265.398 156.176 267.63 156.176C269.934 156.176 270.366 158 270.366 159.992ZM281.339 166.784L281.243 165.368C281.243 165.368 280.283 165.776 279.491 165.776C278.459 165.776 278.027 165.152 278.027 164.096L278.051 156.56H281.339V155H278.075V151.64L276.251 151.88V155H273.395V156.56H276.251L276.203 164.288C276.203 166.232 276.995 167.288 279.035 167.288C280.259 167.288 281.339 166.784 281.339 166.784ZM299.107 167C299.107 167 299.035 165.68 299.035 163.712V150.08H297.211V156.584H297.187C296.755 155.84 295.747 154.712 293.731 154.712C290.227 154.712 289.075 157.712 289.075 161.072C289.075 164.504 290.155 167.288 293.539 167.288C295.603 167.288 296.539 166.28 297.235 165.272H297.259L297.379 167H299.107ZM297.211 162.248C297.211 164.024 295.771 165.68 294.043 165.68C292.147 165.68 290.971 164.192 290.971 161.816V160.328C290.971 158.12 291.907 156.32 294.139 156.32C295.651 156.32 297.211 157.808 297.211 159.92V162.248ZM311.704 160.088C311.704 155.744 309.52 154.712 307.24 154.712C303.664 154.712 302.128 157.328 302.128 161.024C302.128 164.648 303.16 167.288 307.24 167.288C308.8 167.288 310.168 166.952 311.104 166.376L311.008 164.792C309.976 165.344 308.776 165.728 307.432 165.728C304.888 165.728 304 163.88 304 161.96V161.432H311.656C311.656 161.432 311.704 160.328 311.704 160.088ZM309.928 159.992H303.976C303.976 158.12 304.96 156.176 307.192 156.176C309.496 156.176 309.928 158 309.928 159.992ZM321.885 163.712C321.885 161.792 320.709 160.928 319.053 160.28L318.285 159.968C316.677 159.344 315.933 158.84 315.933 157.808C315.933 156.872 316.605 156.2 318.237 156.2C318.885 156.2 319.965 156.392 321.165 157.112L321.285 155.48C320.589 155.096 319.533 154.712 318.213 154.712C315.357 154.712 314.061 156.128 314.061 157.928C314.061 159.848 315.333 160.736 316.893 161.336L317.661 161.648C319.125 162.2 320.037 162.68 320.037 163.88C320.037 164.912 319.317 165.776 317.373 165.776C316.173 165.776 315.189 165.416 314.157 164.84L314.037 166.448C315.069 167 316.173 167.288 317.421 167.288C320.445 167.288 321.885 165.872 321.885 163.712ZM326.87 167V155H325.07V167H326.87ZM327.278 151.544C327.278 150.824 326.702 150.248 325.982 150.248C325.262 150.248 324.686 150.824 324.686 151.544C324.686 152.264 325.262 152.84 325.982 152.84C326.702 152.84 327.278 152.264 327.278 151.544ZM340.052 155H338.372L338.276 156.68H338.252C337.724 155.792 336.692 154.712 334.676 154.712C331.172 154.712 330.02 157.64 330.02 160.928C330.02 164.288 331.052 167 334.436 167C336.548 167 337.436 166.016 338.132 165.08H338.156V166.784C338.156 169.736 336.596 170.696 334.412 170.696C333.188 170.696 331.796 170.144 330.98 169.64L330.86 171.344C331.508 171.704 332.732 172.256 334.508 172.256C337.724 172.256 339.98 170.432 339.98 166.784V158.36C339.98 156.272 340.052 155 340.052 155ZM338.156 162.056C338.156 163.784 336.74 165.392 334.988 165.392C333.116 165.392 331.916 163.928 331.916 161.648V160.208C331.916 158.072 332.804 156.32 335.036 156.32C336.596 156.32 338.156 157.76 338.156 159.8V162.056ZM353.132 167V158.744C353.132 156.2 352.004 154.712 349.316 154.712C346.844 154.712 345.5 156.704 345.5 156.704H345.476V155H343.7V167H345.524V159.32C345.524 157.832 347.06 156.392 348.764 156.392C350.948 156.392 351.308 157.856 351.308 159.272V167H353.132ZM365.61 160.088C365.61 155.744 363.426 154.712 361.146 154.712C357.57 154.712 356.034 157.328 356.034 161.024C356.034 164.648 357.066 167.288 361.146 167.288C362.706 167.288 364.074 166.952 365.01 166.376L364.914 164.792C363.882 165.344 362.682 165.728 361.338 165.728C358.794 165.728 357.906 163.88 357.906 161.96V161.432H365.562C365.562 161.432 365.61 160.328 365.61 160.088ZM363.834 159.992H357.882C357.882 158.12 358.866 156.176 361.098 156.176C363.402 156.176 363.834 158 363.834 159.992ZM377.927 167C377.927 167 377.855 165.68 377.855 163.712V150.08H376.031V156.584H376.007C375.575 155.84 374.567 154.712 372.551 154.712C369.047 154.712 367.895 157.712 367.895 161.072C367.895 164.504 368.975 167.288 372.359 167.288C374.423 167.288 375.359 166.28 376.055 165.272H376.079L376.199 167H377.927ZM376.031 162.248C376.031 164.024 374.591 165.68 372.863 165.68C370.967 165.68 369.791 164.192 369.791 161.816V160.328C369.791 158.12 370.727 156.32 372.959 156.32C374.471 156.32 376.031 157.808 376.031 159.92V162.248ZM393.651 156.56V155H390.363V153.512C390.363 152.216 390.891 151.352 392.115 151.352C392.787 151.352 393.291 151.472 393.291 151.472L393.411 149.96C393.411 149.96 392.619 149.816 391.875 149.816C389.667 149.816 388.563 151.16 388.563 153.344V155H385.707V156.56H388.563V167H390.363V156.56H393.651ZM405.164 160.952C405.164 157.136 403.844 154.712 400.148 154.712C396.452 154.712 395.036 157.328 395.036 161.048C395.036 164.864 396.356 167.288 400.052 167.288C403.748 167.288 405.164 164.696 405.164 160.952ZM403.268 161.768C403.268 164.216 402.092 165.752 400.076 165.752C398.06 165.752 396.932 164.312 396.932 161.864V160.232C396.932 157.784 398.108 156.248 400.124 156.248C402.14 156.248 403.268 157.688 403.268 160.136V161.768ZM414.079 154.76C414.079 154.76 413.839 154.712 413.599 154.712C411.031 154.712 410.023 156.848 409.975 156.92H409.951V155H408.199V167H410.023V159.656C410.023 158.192 411.295 156.464 413.263 156.464C413.647 156.464 413.983 156.536 413.983 156.536L414.079 154.76ZM432.174 155H430.302L426.63 165.128H426.605L422.982 155H421.014L425.718 167C425.718 167 424.662 169.496 423.438 171.92H425.478C428.718 164.648 432.174 155 432.174 155ZM444.023 160.952C444.023 157.136 442.703 154.712 439.007 154.712C435.311 154.712 433.895 157.328 433.895 161.048C433.895 164.864 435.215 167.288 438.911 167.288C442.607 167.288 444.023 164.696 444.023 160.952ZM442.127 161.768C442.127 164.216 440.951 165.752 438.935 165.752C436.919 165.752 435.791 164.312 435.791 161.864V160.232C435.791 157.784 436.967 156.248 438.983 156.248C440.999 156.248 442.127 157.688 442.127 160.136V161.768ZM456.586 162.344V155H454.786V162.32C454.786 164.384 454.162 165.704 451.882 165.704C449.698 165.704 448.93 164.36 448.93 162.32V155H447.106V162.344C447.106 165.44 448.306 167.312 451.81 167.312C455.218 167.312 456.586 165.464 456.586 162.344ZM75.16 194C75.16 194 75.088 192.368 75.088 190.712V185.432C75.088 183.44 75.16 182 75.16 182H73.48L73.384 183.728H73.36C72.88 182.84 71.896 181.712 69.88 181.712C66.4 181.712 65.2 184.712 65.2 188.072C65.2 191.504 66.352 194.288 69.712 194.288C71.752 194.288 72.664 193.304 73.336 192.224H73.36L73.48 194H75.16ZM73.288 189.248C73.288 191.024 71.944 192.68 70.168 192.68C68.296 192.68 67.096 191.192 67.096 188.816V187.328C67.096 185.12 68.032 183.32 70.264 183.32C71.824 183.32 73.288 184.808 73.288 186.92V189.248ZM88.2884 194V185.744C88.2884 183.2 87.1604 181.712 84.4724 181.712C82.0004 181.712 80.6564 183.704 80.6564 183.704H80.6324V182H78.8564V194H80.6804V186.32C80.6804 184.832 82.2164 183.392 83.9204 183.392C86.1044 183.392 86.4644 184.856 86.4644 186.272V194H88.2884ZM101.295 194C101.295 194 101.223 192.68 101.223 190.712V177.08H99.3985V183.584H99.3745C98.9425 182.84 97.9345 181.712 95.9185 181.712C92.4145 181.712 91.2625 184.712 91.2625 188.072C91.2625 191.504 92.3425 194.288 95.7265 194.288C97.7905 194.288 98.7265 193.28 99.4225 192.272H99.4465L99.5665 194H101.295ZM99.3985 189.248C99.3985 191.024 97.9585 192.68 96.2305 192.68C94.3345 192.68 93.1585 191.192 93.1585 188.816V187.328C93.1585 185.12 94.0945 183.32 96.3265 183.32C97.8385 183.32 99.3985 184.808 99.3985 186.92V189.248ZM119.61 187.088C119.61 182.744 117.426 181.712 115.146 181.712C111.57 181.712 110.034 184.328 110.034 188.024C110.034 191.648 111.066 194.288 115.146 194.288C116.706 194.288 118.074 193.952 119.01 193.376L118.914 191.792C117.882 192.344 116.682 192.728 115.338 192.728C112.794 192.728 111.906 190.88 111.906 188.96V188.432H119.562C119.562 188.432 119.61 187.328 119.61 187.088ZM117.834 186.992H111.882C111.882 185.12 112.866 183.176 115.098 183.176C117.402 183.176 117.834 185 117.834 186.992ZM132.023 182H130.271L126.767 192.416H126.743L123.239 182H121.367L125.663 194H127.727L132.023 182ZM143.423 187.088C143.423 182.744 141.239 181.712 138.959 181.712C135.383 181.712 133.847 184.328 133.847 188.024C133.847 191.648 134.879 194.288 138.959 194.288C140.519 194.288 141.887 193.952 142.823 193.376L142.727 191.792C141.695 192.344 140.495 192.728 139.151 192.728C136.607 192.728 135.719 190.88 135.719 188.96V188.432H143.375C143.375 188.432 143.423 187.328 143.423 187.088ZM141.647 186.992H135.695C135.695 185.12 136.679 183.176 138.911 183.176C141.215 183.176 141.647 185 141.647 186.992ZM152.212 181.76C152.212 181.76 151.972 181.712 151.732 181.712C149.164 181.712 148.156 183.848 148.108 183.92H148.084V182H146.332V194H148.156V186.656C148.156 185.192 149.428 183.464 151.396 183.464C151.78 183.464 152.116 183.536 152.116 183.536L152.212 181.76ZM164.588 182H162.716L159.044 192.128H159.02L155.396 182H153.428L158.132 194C158.132 194 157.076 196.496 155.852 198.92H157.892C161.132 191.648 164.588 182 164.588 182ZM173.221 193.784L173.125 192.368C173.125 192.368 172.165 192.776 171.373 192.776C170.341 192.776 169.909 192.152 169.909 191.096L169.933 183.56H173.221V182H169.957V178.64L168.133 178.88V182H165.277V183.56H168.133L168.085 191.288C168.085 193.232 168.877 194.288 170.917 194.288C172.141 194.288 173.221 193.784 173.221 193.784ZM185.295 194V185.744C185.295 183.2 184.191 181.712 181.479 181.712C179.055 181.712 177.711 183.656 177.711 183.656H177.687V177.08H175.863V194H177.687V186.32C177.687 184.832 179.223 183.392 180.927 183.392C183.111 183.392 183.471 184.856 183.471 186.272V194H185.295ZM190.862 194V182H189.062V194H190.862ZM191.27 178.544C191.27 177.824 190.694 177.248 189.974 177.248C189.254 177.248 188.678 177.824 188.678 178.544C188.678 179.264 189.254 179.84 189.974 179.84C190.694 179.84 191.27 179.264 191.27 178.544ZM204.117 194V185.744C204.117 183.2 202.989 181.712 200.301 181.712C197.829 181.712 196.485 183.704 196.485 183.704H196.461V182H194.685V194H196.509V186.32C196.509 184.832 198.045 183.392 199.749 183.392C201.933 183.392 202.293 184.856 202.293 186.272V194H204.117ZM217.123 182H215.443L215.347 183.68H215.323C214.795 182.792 213.763 181.712 211.747 181.712C208.243 181.712 207.091 184.64 207.091 187.928C207.091 191.288 208.123 194 211.507 194C213.619 194 214.507 193.016 215.203 192.08H215.227V193.784C215.227 196.736 213.667 197.696 211.483 197.696C210.259 197.696 208.867 197.144 208.051 196.64L207.931 198.344C208.579 198.704 209.803 199.256 211.579 199.256C214.795 199.256 217.051 197.432 217.051 193.784V185.36C217.051 183.272 217.123 182 217.123 182ZM215.227 189.056C215.227 190.784 213.811 192.392 212.059 192.392C210.187 192.392 208.987 190.928 208.987 188.648V187.208C208.987 185.072 209.875 183.32 212.107 183.32C213.667 183.32 215.227 184.76 215.227 186.8V189.056ZM232.729 193.784L232.633 192.368C232.633 192.368 231.673 192.776 230.881 192.776C229.849 192.776 229.417 192.152 229.417 191.096L229.441 183.56H232.729V182H229.465V178.64L227.641 178.88V182H224.785V183.56H227.641L227.593 191.288C227.593 193.232 228.385 194.288 230.425 194.288C231.649 194.288 232.729 193.784 232.729 193.784ZM244.803 194V185.744C244.803 183.2 243.699 181.712 240.987 181.712C238.563 181.712 237.219 183.656 237.219 183.656H237.195V177.08H235.371V194H237.195V186.32C237.195 184.832 238.731 183.392 240.435 183.392C242.619 183.392 242.979 184.856 242.979 186.272V194H244.803ZM257.738 194C257.738 194 257.666 192.368 257.666 190.712V185.432C257.666 183.44 257.738 182 257.738 182H256.058L255.962 183.728H255.938C255.458 182.84 254.474 181.712 252.458 181.712C248.978 181.712 247.778 184.712 247.778 188.072C247.778 191.504 248.93 194.288 252.29 194.288C254.33 194.288 255.242 193.304 255.914 192.224H255.938L256.058 194H257.738ZM255.866 189.248C255.866 191.024 254.522 192.68 252.746 192.68C250.874 192.68 249.674 191.192 249.674 188.816V187.328C249.674 185.12 250.61 183.32 252.842 183.32C254.402 183.32 255.866 184.808 255.866 186.92V189.248ZM267.675 193.784L267.579 192.368C267.579 192.368 266.618 192.776 265.827 192.776C264.795 192.776 264.363 192.152 264.363 191.096L264.387 183.56H267.675V182H264.411V178.64L262.587 178.88V182H259.731V183.56H262.587L262.539 191.288C262.539 193.232 263.331 194.288 265.371 194.288C266.595 194.288 267.675 193.784 267.675 193.784ZM292.139 194V185.744C292.139 183.248 291.179 181.712 288.515 181.712C286.139 181.712 284.723 183.896 284.723 183.896C284.243 182.528 283.283 181.712 281.411 181.712C279.083 181.712 277.859 183.704 277.859 183.704H277.835V182H276.059V194H277.883V186.32C277.883 184.832 279.323 183.392 280.883 183.392C282.875 183.392 283.187 184.856 283.187 186.272V194H284.987V186.32C284.987 184.832 286.451 183.392 288.011 183.392C290.003 183.392 290.339 184.856 290.339 186.272V194H292.139ZM305.082 194C305.082 194 305.01 192.368 305.01 190.712V185.432C305.01 183.44 305.082 182 305.082 182H303.402L303.306 183.728H303.282C302.802 182.84 301.818 181.712 299.802 181.712C296.322 181.712 295.122 184.712 295.122 188.072C295.122 191.504 296.274 194.288 299.634 194.288C301.674 194.288 302.586 193.304 303.258 192.224H303.282L303.402 194H305.082ZM303.21 189.248C303.21 191.024 301.866 192.68 300.09 192.68C298.218 192.68 297.018 191.192 297.018 188.816V187.328C297.018 185.12 297.954 183.32 300.186 183.32C301.746 183.32 303.21 184.808 303.21 186.92V189.248ZM315.018 193.784L314.922 192.368C314.922 192.368 313.962 192.776 313.17 192.776C312.138 192.776 311.706 192.152 311.706 191.096L311.73 183.56H315.018V182H311.754V178.64L309.93 178.88V182H307.074V183.56H309.93L309.882 191.288C309.882 193.232 310.674 194.288 312.714 194.288C313.938 194.288 315.018 193.784 315.018 193.784ZM323.948 193.784L323.852 192.368C323.852 192.368 322.892 192.776 322.1 192.776C321.068 192.776 320.636 192.152 320.636 191.096L320.66 183.56H323.948V182H320.684V178.64L318.86 178.88V182H316.004V183.56H318.86L318.812 191.288C318.812 193.232 319.604 194.288 321.644 194.288C322.868 194.288 323.948 193.784 323.948 193.784ZM335.47 187.088C335.47 182.744 333.286 181.712 331.006 181.712C327.43 181.712 325.894 184.328 325.894 188.024C325.894 191.648 326.926 194.288 331.006 194.288C332.566 194.288 333.934 193.952 334.87 193.376L334.774 191.792C333.742 192.344 332.542 192.728 331.198 192.728C328.654 192.728 327.766 190.88 327.766 188.96V188.432H335.422C335.422 188.432 335.47 187.328 335.47 187.088ZM333.694 186.992H327.742C327.742 185.12 328.726 183.176 330.958 183.176C333.262 183.176 333.694 185 333.694 186.992ZM344.259 181.76C344.259 181.76 344.019 181.712 343.779 181.712C341.211 181.712 340.203 183.848 340.155 183.92H340.131V182H338.379V194H340.203V186.656C340.203 185.192 341.475 183.464 343.443 183.464C343.827 183.464 344.163 183.536 344.163 183.536L344.259 181.76ZM353.994 190.712C353.994 188.792 352.818 187.928 351.162 187.28L350.394 186.968C348.786 186.344 348.042 185.84 348.042 184.808C348.042 183.872 348.714 183.2 350.346 183.2C350.994 183.2 352.074 183.392 353.274 184.112L353.394 182.48C352.698 182.096 351.642 181.712 350.322 181.712C347.466 181.712 346.17 183.128 346.17 184.928C346.17 186.848 347.442 187.736 349.002 188.336L349.77 188.648C351.234 189.2 352.146 189.68 352.146 190.88C352.146 191.912 351.426 192.776 349.482 192.776C348.282 192.776 347.298 192.416 346.266 191.84L346.146 193.448C347.178 194 348.282 194.288 349.53 194.288C352.554 194.288 353.994 192.872 353.994 190.712ZM369.018 193.784L368.922 192.368C368.922 192.368 367.962 192.776 367.17 192.776C366.138 192.776 365.706 192.152 365.706 191.096L365.73 183.56H369.018V182H365.754V178.64L363.93 178.88V182H361.074V183.56H363.93L363.882 191.288C363.882 193.232 364.674 194.288 366.714 194.288C367.938 194.288 369.018 193.784 369.018 193.784ZM381.164 187.952C381.164 184.136 379.844 181.712 376.148 181.712C372.452 181.712 371.036 184.328 371.036 188.048C371.036 191.864 372.356 194.288 376.052 194.288C379.748 194.288 381.164 191.696 381.164 187.952ZM379.268 188.768C379.268 191.216 378.092 192.752 376.076 192.752C374.06 192.752 372.932 191.312 372.932 188.864V187.232C372.932 184.784 374.108 183.248 376.124 183.248C378.14 183.248 379.268 184.688 379.268 187.136V188.768ZM399.83 182H397.958L394.286 192.128H394.262L390.638 182H388.67L393.374 194C393.374 194 392.318 196.496 391.094 198.92H393.134C396.374 191.648 399.83 182 399.83 182ZM411.68 187.952C411.68 184.136 410.36 181.712 406.664 181.712C402.968 181.712 401.552 184.328 401.552 188.048C401.552 191.864 402.872 194.288 406.568 194.288C410.264 194.288 411.68 191.696 411.68 187.952ZM409.784 188.768C409.784 191.216 408.608 192.752 406.592 192.752C404.576 192.752 403.448 191.312 403.448 188.864V187.232C403.448 184.784 404.624 183.248 406.64 183.248C408.656 183.248 409.784 184.688 409.784 187.136V188.768ZM424.243 189.344V182H422.443V189.32C422.443 191.384 421.819 192.704 419.539 192.704C417.355 192.704 416.587 191.36 416.587 189.32V182H414.763V189.344C414.763 192.44 415.963 194.312 419.467 194.312C422.875 194.312 424.243 192.464 424.243 189.344ZM430.525 192.848C430.525 192.056 429.877 191.432 429.085 191.432C428.293 191.432 427.645 192.056 427.645 192.848C427.645 193.64 428.293 194.288 429.085 194.288C429.877 194.288 430.525 193.64 430.525 192.848Z" fill="white"/>
<path d="M86.86 71V46.988H80.74L80.848 60.92H80.812L73.504 46.988H66.304V71H72.424L72.316 57.068H72.352L79.66 71H86.86ZM110.268 63.728C110.268 59.012 105.84 58.292 105.84 58.292V58.22C105.84 58.22 109.728 56.96 109.728 53.072C109.728 48.032 105.732 46.988 100.908 46.988H91.4759V71H100.548C108.108 71 110.268 68.084 110.268 63.728ZM103.428 63.512C103.428 64.88 102.456 65.888 100.044 65.888H98.2439V61.064H100.512C102.348 61.064 103.428 61.676 103.428 63.512ZM102.852 53.864C102.852 55.232 102.132 56.096 100.188 56.096H98.2439V51.956H100.296C102.06 51.956 102.852 52.568 102.852 53.864ZM135.074 71C130.286 64.448 126.47 58.544 126.47 58.544L134.138 46.988H126.398L120.71 56.456H120.674V46.988H113.906V71H120.674V61.604H120.71C120.71 61.604 124.13 67.436 126.614 71H135.074ZM163.741 63.728C163.741 59.012 159.313 58.292 159.313 58.292V58.22C159.313 58.22 163.201 56.96 163.201 53.072C163.201 48.032 159.205 46.988 154.381 46.988H144.949V71H154.021C161.581 71 163.741 68.084 163.741 63.728ZM156.901 63.512C156.901 64.88 155.929 65.888 153.517 65.888H151.717V61.064H153.985C155.821 61.064 156.901 61.676 156.901 63.512ZM156.325 53.864C156.325 55.232 155.605 56.096 153.661 56.096H151.717V51.956H153.769C155.533 51.956 156.325 52.568 156.325 53.864ZM184.226 71V53H178.214L177.926 54.836H177.89C177.242 53.504 175.91 52.388 173.21 52.388C168.278 52.388 166.226 56.204 166.226 61.964C166.226 68.048 168.062 71.612 172.994 71.612C175.514 71.612 177.098 70.424 177.926 69.164H177.962L178.25 71H184.226ZM177.602 63.152C177.602 64.988 176.846 66.392 175.154 66.392C173.786 66.392 172.994 65.348 172.994 63.152V60.884C172.994 58.976 173.606 57.608 175.298 57.608C176.666 57.608 177.602 58.868 177.602 60.884V63.152ZM206.505 71V58.436C206.505 53.792 203.553 52.388 200.565 52.388C196.749 52.388 194.805 54.836 194.805 54.836H194.733V53H188.433V71H195.093V60.38C195.093 59.156 196.209 58.148 197.613 58.148C199.341 58.148 199.845 59.192 199.845 60.56V71H206.505ZM223.611 70.496L223.323 65.456C222.135 65.996 220.911 66.32 219.363 66.32C217.671 66.32 216.339 65.456 216.339 62.72V61.172C216.339 58.76 217.491 57.644 219.471 57.644C221.235 57.644 223.035 58.508 223.035 58.508L223.323 53.396C223.323 53.396 221.091 52.424 218.463 52.424C211.731 52.424 209.571 55.988 209.571 61.964C209.571 67.904 211.263 71.576 217.851 71.576C220.083 71.576 221.955 71.252 223.611 70.496ZM243.324 71V53H237.312L237.024 54.836H236.988C236.34 53.504 235.008 52.388 232.308 52.388C227.376 52.388 225.324 56.204 225.324 61.964C225.324 68.048 227.16 71.612 232.092 71.612C234.612 71.612 236.196 70.424 237.024 69.164H237.06L237.348 71H243.324ZM236.7 63.152C236.7 64.988 235.944 66.392 234.252 66.392C232.884 66.392 232.092 65.348 232.092 63.152V60.884C232.092 58.976 232.704 57.608 234.396 57.608C235.764 57.608 236.7 58.868 236.7 60.884V63.152ZM261.067 65.456C261.067 61.784 258.799 60.38 256.423 59.624L255.163 59.228C253.831 58.76 253.363 58.436 253.363 57.932C253.363 57.392 253.759 57.104 254.947 57.104C256.171 57.104 258.259 57.68 259.771 58.436L260.059 53.54C258.727 52.964 256.423 52.424 254.443 52.424C250.159 52.424 246.631 53.972 246.631 58.148C246.631 61.856 248.899 63.296 251.491 64.16L252.715 64.556C254.047 64.988 254.371 65.276 254.371 65.816C254.371 66.284 254.191 66.896 252.319 66.896C250.519 66.896 248.503 66.248 246.883 65.384L246.595 70.316C248.683 71.18 250.807 71.576 253.147 71.576C258.259 71.576 261.067 69.416 261.067 65.456ZM277.872 65.456C277.872 61.784 275.604 60.38 273.228 59.624L271.968 59.228C270.636 58.76 270.168 58.436 270.168 57.932C270.168 57.392 270.564 57.104 271.752 57.104C272.976 57.104 275.064 57.68 276.576 58.436L276.864 53.54C275.532 52.964 273.228 52.424 271.248 52.424C266.964 52.424 263.436 53.972 263.436 58.148C263.436 61.856 265.704 63.296 268.296 64.16L269.52 64.556C270.852 64.988 271.176 65.276 271.176 65.816C271.176 66.284 270.996 66.896 269.124 66.896C267.324 66.896 265.308 66.248 263.688 65.384L263.4 70.316C265.488 71.18 267.612 71.576 269.952 71.576C275.064 71.576 277.872 69.416 277.872 65.456ZM298.708 64.16V53H292.048V63.62C292.048 65.42 291.4 66.356 289.996 66.356C288.556 66.356 287.8 65.384 287.8 63.62V53H281.14V64.16C281.14 69.704 284.2 71.612 289.672 71.612C296.044 71.612 298.708 69.236 298.708 64.16ZM315.283 52.46C315.283 52.46 314.923 52.388 314.239 52.388C311.539 52.388 310.027 54.008 309.271 55.448H309.235V53H302.935V71H309.595V62C309.595 59.912 311.143 58.508 313.411 58.508C314.527 58.508 314.995 58.688 314.995 58.688L315.283 52.46ZM334.73 71V53H328.718L328.43 54.836H328.394C327.746 53.504 326.414 52.388 323.714 52.388C318.782 52.388 316.73 56.204 316.73 61.964C316.73 68.048 318.566 71.612 323.498 71.612C326.018 71.612 327.602 70.424 328.43 69.164H328.466L328.754 71H334.73ZM328.106 63.152C328.106 64.988 327.35 66.392 325.658 66.392C324.29 66.392 323.498 65.348 323.498 63.152V60.884C323.498 58.976 324.11 57.608 325.802 57.608C327.17 57.608 328.106 58.868 328.106 60.884V63.152ZM357.009 71V58.436C357.009 53.792 354.057 52.388 351.069 52.388C347.253 52.388 345.309 54.836 345.309 54.836H345.237V53H338.937V71H345.597V60.38C345.597 59.156 346.713 58.148 348.117 58.148C349.845 58.148 350.349 59.192 350.349 60.56V71H357.009ZM374.115 70.496L373.827 65.456C372.639 65.996 371.415 66.32 369.867 66.32C368.175 66.32 366.843 65.456 366.843 62.72V61.172C366.843 58.76 367.995 57.644 369.975 57.644C371.739 57.644 373.539 58.508 373.539 58.508L373.827 53.396C373.827 53.396 371.595 52.424 368.967 52.424C362.235 52.424 360.075 55.988 360.075 61.964C360.075 67.904 361.767 71.576 368.355 71.576C370.587 71.576 372.459 71.252 374.115 70.496ZM392.712 61.64C392.712 56.42 391.416 52.424 384.828 52.424C377.952 52.424 375.72 56.24 375.72 62.108C375.72 68.192 377.592 71.576 384.936 71.576C388.032 71.576 390.408 70.928 391.74 70.208L391.452 65.276C389.796 65.96 387.816 66.464 385.728 66.464C382.992 66.464 382.128 65.096 382.128 63.836V63.8H392.64C392.64 63.8 392.712 62.18 392.712 61.64ZM386.628 59.732H382.02C382.02 58.184 382.776 56.636 384.54 56.636C386.448 56.636 386.628 58.472 386.628 59.732ZM73.144 114V89.988H66.304V114H73.144ZM95.6929 114V101.436C95.6929 96.792 92.7409 95.388 89.7529 95.388C85.9369 95.388 83.9929 97.836 83.9929 97.836H83.9209V96H77.6209V114H84.2809V103.38C84.2809 102.156 85.3969 101.148 86.8009 101.148C88.5289 101.148 89.0329 102.192 89.0329 103.56V114H95.6929ZM111.791 113.748L111.503 109.068C111.503 109.068 110.423 109.392 109.523 109.392C108.335 109.392 107.759 109.068 107.759 107.412V101.22H111.791V96H107.795L107.831 90.96L101.207 91.68L101.171 96H97.7508V101.22H101.171L101.135 108.816C101.099 112.704 102.935 114.612 106.787 114.612C109.667 114.612 111.791 113.748 111.791 113.748ZM130.938 104.64C130.938 99.42 129.642 95.424 123.054 95.424C116.178 95.424 113.946 99.24 113.946 105.108C113.946 111.192 115.818 114.576 123.162 114.576C126.258 114.576 128.634 113.928 129.966 113.208L129.678 108.276C128.022 108.96 126.042 109.464 123.954 109.464C121.218 109.464 120.354 108.096 120.354 106.836V106.8H130.866C130.866 106.8 130.938 105.18 130.938 104.64ZM124.854 102.732H120.246C120.246 101.184 121.002 99.636 122.766 99.636C124.674 99.636 124.854 101.472 124.854 102.732ZM146.322 95.46C146.322 95.46 145.962 95.388 145.278 95.388C142.578 95.388 141.066 97.008 140.31 98.448H140.274V96H133.974V114H140.634V105C140.634 102.912 142.182 101.508 144.45 101.508C145.566 101.508 146.034 101.688 146.034 101.688L146.322 95.46ZM176.821 114V101.436C176.821 97.836 175.057 95.388 170.809 95.388C167.461 95.388 165.301 98.088 165.301 98.088C164.509 96.54 163.141 95.388 160.513 95.388C157.021 95.388 155.113 97.836 155.113 97.836H155.041V96H148.741V114H155.401V103.38C155.401 102.192 156.373 101.148 157.633 101.148C158.965 101.148 159.433 102.192 159.433 103.56V114H166.093V103.38C166.093 102.12 167.173 101.148 168.325 101.148C169.657 101.148 170.125 102.192 170.125 103.56V114H176.821ZM196.856 104.64C196.856 99.42 195.56 95.424 188.972 95.424C182.096 95.424 179.864 99.24 179.864 105.108C179.864 111.192 181.736 114.576 189.08 114.576C192.176 114.576 194.552 113.928 195.884 113.208L195.596 108.276C193.94 108.96 191.96 109.464 189.872 109.464C187.136 109.464 186.272 108.096 186.272 106.836V106.8H196.784C196.784 106.8 196.856 105.18 196.856 104.64ZM190.772 102.732H186.164C186.164 101.184 186.92 99.636 188.684 99.636C190.592 99.636 190.772 101.472 190.772 102.732ZM217.1 114V88.62H210.44V97.332H210.404C209.828 96.468 208.64 95.388 205.976 95.388C201.008 95.388 198.992 99.204 198.992 104.964C198.992 111.048 200.792 114.612 205.76 114.612C208.244 114.612 209.864 113.424 210.764 112.164H210.8L211.088 114H217.1ZM210.44 106.152C210.44 107.988 209.648 109.392 208.064 109.392C206.732 109.392 205.76 108.348 205.76 106.152V103.884C205.76 101.976 206.48 100.608 208.208 100.608C209.54 100.608 210.44 101.868 210.44 103.884V106.152ZM228.034 114V96H221.374V114H228.034ZM228.574 91.356C228.574 89.232 226.81 87.504 224.686 87.504C222.562 87.504 220.834 89.232 220.834 91.356C220.834 93.48 222.562 95.244 224.686 95.244C226.81 95.244 228.574 93.48 228.574 91.356ZM249.195 114V96H243.183L242.895 97.836H242.859C242.211 96.504 240.879 95.388 238.179 95.388C233.247 95.388 231.195 99.204 231.195 104.964C231.195 111.048 233.031 114.612 237.963 114.612C240.483 114.612 242.067 113.424 242.895 112.164H242.931L243.219 114H249.195ZM242.571 106.152C242.571 107.988 241.815 109.392 240.123 109.392C238.755 109.392 237.963 108.348 237.963 106.152V103.884C237.963 101.976 238.575 100.608 240.267 100.608C241.635 100.608 242.571 101.868 242.571 103.884V106.152ZM265.642 95.46C265.642 95.46 265.282 95.388 264.598 95.388C261.898 95.388 260.386 97.008 259.63 98.448H259.594V96H253.294V114H259.954V105C259.954 102.912 261.502 101.508 263.77 101.508C264.886 101.508 265.354 101.688 265.354 101.688L265.642 95.46ZM286.314 96H279.762L276.198 107.844H276.162L272.958 96H266.154L272.706 114C272.706 114 271.842 116.7 269.754 121.38H276.846C281.562 109.716 286.314 96 286.314 96ZM311.732 114V108.78L303.416 108.708V89.988H296.648V114H311.732ZM321.163 114V96H314.503V114H321.163ZM321.703 91.356C321.703 89.232 319.939 87.504 317.815 87.504C315.691 87.504 313.963 89.232 313.963 91.356C313.963 93.48 315.691 95.244 317.815 95.244C319.939 95.244 321.703 93.48 321.703 91.356ZM353.376 114V101.436C353.376 97.836 351.612 95.388 347.364 95.388C344.016 95.388 341.856 98.088 341.856 98.088C341.064 96.54 339.696 95.388 337.068 95.388C333.576 95.388 331.668 97.836 331.668 97.836H331.596V96H325.296V114H331.956V103.38C331.956 102.192 332.928 101.148 334.188 101.148C335.52 101.148 335.988 102.192 335.988 103.56V114H342.648V103.38C342.648 102.12 343.728 101.148 344.88 101.148C346.212 101.148 346.68 102.192 346.68 103.56V114H353.376ZM364.159 114V96H357.499V114H364.159ZM364.699 91.356C364.699 89.232 362.935 87.504 360.811 87.504C358.687 87.504 356.959 89.232 356.959 91.356C356.959 93.48 358.687 95.244 360.811 95.244C362.935 95.244 364.699 93.48 364.699 91.356ZM380.244 113.748L379.956 109.068C379.956 109.068 378.876 109.392 377.976 109.392C376.788 109.392 376.212 109.068 376.212 107.412V101.22H380.244V96H376.248L376.284 90.96L369.66 91.68L369.624 96H366.204V101.22H369.624L369.588 108.816C369.552 112.704 371.388 114.612 375.24 114.612C378.12 114.612 380.244 113.748 380.244 113.748ZM399.391 104.64C399.391 99.42 398.095 95.424 391.507 95.424C384.631 95.424 382.399 99.24 382.399 105.108C382.399 111.192 384.271 114.576 391.615 114.576C394.711 114.576 397.087 113.928 398.419 113.208L398.131 108.276C396.475 108.96 394.495 109.464 392.407 109.464C389.671 109.464 388.807 108.096 388.807 106.836V106.8H399.319C399.319 106.8 399.391 105.18 399.391 104.64ZM393.307 102.732H388.699C388.699 101.184 389.455 99.636 391.219 99.636C393.127 99.636 393.307 101.472 393.307 102.732ZM419.635 114V88.62H412.975V97.332H412.939C412.363 96.468 411.175 95.388 408.511 95.388C403.543 95.388 401.527 99.204 401.527 104.964C401.527 111.048 403.327 114.612 408.295 114.612C410.779 114.612 412.399 113.424 413.299 112.164H413.335L413.623 114H419.635ZM412.975 106.152C412.975 107.988 412.183 109.392 410.599 109.392C409.267 109.392 408.295 108.348 408.295 106.152V103.884C408.295 101.976 409.015 100.608 410.743 100.608C412.075 100.608 412.975 101.868 412.975 103.884V106.152Z" fill="#FFBA00"/>
</svg>
