<svg width="397" height="170" viewBox="0 0 397 170" fill="none" xmlns="http://www.w3.org/2000/svg">
<rect width="397" height="170" fill="#30120B" fill-opacity="0.8"/>
<rect y="45" width="9" height="74" fill="#FFBA00"/>
<path d="M87.688 71L80.776 46.988H71.812L64.648 71H71.488L72.676 66.248H79.264L80.416 71H87.688ZM78.004 60.956H73.972L75.988 52.604H76.024L78.004 60.956ZM109.02 62.072C109.02 55.952 107.4 52.388 102.432 52.388C100.056 52.388 98.5797 53.216 97.6077 54.188H97.5717V45.62H90.9117V71H96.9237L97.2117 69.164H97.2477C97.9677 70.496 99.3717 71.612 102.036 71.612C107.004 71.612 109.02 67.796 109.02 62.072ZM102.252 63.152C102.252 65.024 101.532 66.392 99.8397 66.392C98.4717 66.392 97.5717 65.132 97.5717 63.152V60.704C97.5717 59.012 98.3637 57.608 99.9837 57.608C101.28 57.608 102.252 58.652 102.252 60.884V63.152ZM128.846 61.928C128.846 55.88 126.614 52.424 120.134 52.424C113.618 52.424 111.242 56.024 111.242 62.072C111.242 68.12 113.474 71.576 119.99 71.576C126.47 71.576 128.846 67.976 128.846 61.928ZM122.114 63.548C122.114 65.276 121.538 66.644 119.99 66.644C118.406 66.644 117.974 65.276 117.974 63.548V60.416C117.974 58.724 118.55 57.32 120.098 57.32C121.682 57.32 122.114 58.724 122.114 60.416V63.548ZM149.716 64.16V53H143.056V63.62C143.056 65.42 142.408 66.356 141.004 66.356C139.564 66.356 138.808 65.384 138.808 63.62V53H132.148V64.16C132.148 69.704 135.208 71.612 140.68 71.612C147.052 71.612 149.716 69.236 149.716 64.16ZM165.967 70.748L165.679 66.068C165.679 66.068 164.599 66.392 163.699 66.392C162.511 66.392 161.935 66.068 161.935 64.412V58.22H165.967V53H161.971L162.007 47.96L155.383 48.68L155.347 53H151.927V58.22H155.347L155.311 65.816C155.275 69.704 157.111 71.612 160.963 71.612C163.843 71.612 165.967 70.748 165.967 70.748ZM85.096 106.728C85.096 102.012 80.668 101.292 80.668 101.292V101.22C80.668 101.22 84.556 99.96 84.556 96.072C84.556 91.032 80.56 89.988 75.736 89.988H66.304V114H75.376C82.936 114 85.096 111.084 85.096 106.728ZM78.256 106.512C78.256 107.88 77.284 108.888 74.872 108.888H73.072V104.064H75.34C77.176 104.064 78.256 104.676 78.256 106.512ZM77.68 96.864C77.68 98.232 76.96 99.096 75.016 99.096H73.072V94.956H75.124C76.888 94.956 77.68 95.568 77.68 96.864ZM105.582 114V96H99.5697L99.2817 97.836H99.2457C98.5977 96.504 97.2657 95.388 94.5657 95.388C89.6337 95.388 87.5817 99.204 87.5817 104.964C87.5817 111.048 89.4177 114.612 94.3497 114.612C96.8697 114.612 98.4537 113.424 99.2817 112.164H99.3177L99.6057 114H105.582ZM98.9577 106.152C98.9577 107.988 98.2017 109.392 96.5097 109.392C95.1417 109.392 94.3497 108.348 94.3497 106.152V103.884C94.3497 101.976 94.9617 100.608 96.6537 100.608C98.0217 100.608 98.9577 101.868 98.9577 103.884V106.152ZM127.861 114V101.436C127.861 96.792 124.909 95.388 121.921 95.388C118.105 95.388 116.161 97.836 116.161 97.836H116.089V96H109.789V114H116.449V103.38C116.449 102.156 117.565 101.148 118.969 101.148C120.697 101.148 121.201 102.192 121.201 103.56V114H127.861ZM144.967 113.496L144.679 108.456C143.491 108.996 142.267 109.32 140.719 109.32C139.027 109.32 137.695 108.456 137.695 105.72V104.172C137.695 101.76 138.847 100.644 140.827 100.644C142.591 100.644 144.391 101.508 144.391 101.508L144.679 96.396C144.679 96.396 142.447 95.424 139.819 95.424C133.087 95.424 130.927 98.988 130.927 104.964C130.927 110.904 132.619 114.576 139.207 114.576C141.439 114.576 143.311 114.252 144.967 113.496ZM164.679 114V96H158.667L158.379 97.836H158.343C157.695 96.504 156.363 95.388 153.663 95.388C148.731 95.388 146.679 99.204 146.679 104.964C146.679 111.048 148.515 114.612 153.447 114.612C155.967 114.612 157.551 113.424 158.379 112.164H158.415L158.703 114H164.679ZM158.055 106.152C158.055 107.988 157.299 109.392 155.607 109.392C154.239 109.392 153.447 108.348 153.447 106.152V103.884C153.447 101.976 154.059 100.608 155.751 100.608C157.119 100.608 158.055 101.868 158.055 103.884V106.152ZM182.423 108.456C182.423 104.784 180.155 103.38 177.779 102.624L176.519 102.228C175.187 101.76 174.719 101.436 174.719 100.932C174.719 100.392 175.115 100.104 176.303 100.104C177.527 100.104 179.615 100.68 181.127 101.436L181.415 96.54C180.083 95.964 177.779 95.424 175.799 95.424C171.515 95.424 167.987 96.972 167.987 101.148C167.987 104.856 170.255 106.296 172.847 107.16L174.071 107.556C175.403 107.988 175.727 108.276 175.727 108.816C175.727 109.284 175.547 109.896 173.675 109.896C171.875 109.896 169.859 109.248 168.239 108.384L167.951 113.316C170.039 114.18 172.163 114.576 174.503 114.576C179.615 114.576 182.423 112.416 182.423 108.456ZM199.227 108.456C199.227 104.784 196.959 103.38 194.583 102.624L193.323 102.228C191.991 101.76 191.523 101.436 191.523 100.932C191.523 100.392 191.919 100.104 193.107 100.104C194.331 100.104 196.419 100.68 197.931 101.436L198.219 96.54C196.887 95.964 194.583 95.424 192.603 95.424C188.319 95.424 184.791 96.972 184.791 101.148C184.791 104.856 187.059 106.296 189.651 107.16L190.875 107.556C192.207 107.988 192.531 108.276 192.531 108.816C192.531 109.284 192.351 109.896 190.479 109.896C188.679 109.896 186.663 109.248 185.043 108.384L184.755 113.316C186.843 114.18 188.967 114.576 191.307 114.576C196.419 114.576 199.227 112.416 199.227 108.456ZM220.064 107.16V96H213.404V106.62C213.404 108.42 212.756 109.356 211.352 109.356C209.912 109.356 209.156 108.384 209.156 106.62V96H202.496V107.16C202.496 112.704 205.556 114.612 211.028 114.612C217.4 114.612 220.064 112.236 220.064 107.16ZM236.638 95.46C236.638 95.46 236.278 95.388 235.594 95.388C232.894 95.388 231.382 97.008 230.626 98.448H230.59V96H224.29V114H230.95V105C230.95 102.912 232.498 101.508 234.766 101.508C235.882 101.508 236.35 101.688 236.35 101.688L236.638 95.46ZM256.086 114V96H250.074L249.786 97.836H249.75C249.102 96.504 247.77 95.388 245.07 95.388C240.138 95.388 238.086 99.204 238.086 104.964C238.086 111.048 239.922 114.612 244.854 114.612C247.374 114.612 248.958 113.424 249.786 112.164H249.822L250.11 114H256.086ZM249.462 106.152C249.462 107.988 248.706 109.392 247.014 109.392C245.646 109.392 244.854 108.348 244.854 106.152V103.884C244.854 101.976 245.466 100.608 247.158 100.608C248.526 100.608 249.462 101.868 249.462 103.884V106.152ZM278.365 114V101.436C278.365 96.792 275.413 95.388 272.425 95.388C268.609 95.388 266.665 97.836 266.665 97.836H266.593V96H260.293V114H266.953V103.38C266.953 102.156 268.069 101.148 269.473 101.148C271.201 101.148 271.705 102.192 271.705 103.56V114H278.365ZM295.471 113.496L295.183 108.456C293.995 108.996 292.771 109.32 291.223 109.32C289.531 109.32 288.199 108.456 288.199 105.72V104.172C288.199 101.76 289.351 100.644 291.331 100.644C293.095 100.644 294.895 101.508 294.895 101.508L295.183 96.396C295.183 96.396 292.951 95.424 290.323 95.424C283.591 95.424 281.431 98.988 281.431 104.964C281.431 110.904 283.123 114.576 289.711 114.576C291.943 114.576 293.815 114.252 295.471 113.496ZM314.067 104.64C314.067 99.42 312.771 95.424 306.183 95.424C299.307 95.424 297.075 99.24 297.075 105.108C297.075 111.192 298.947 114.576 306.291 114.576C309.387 114.576 311.763 113.928 313.095 113.208L312.807 108.276C311.151 108.96 309.171 109.464 307.083 109.464C304.347 109.464 303.483 108.096 303.483 106.836V106.8H313.995C313.995 106.8 314.067 105.18 314.067 104.64ZM307.983 102.732H303.375C303.375 101.184 304.131 99.636 305.895 99.636C307.803 99.636 307.983 101.472 307.983 102.732Z" fill="#FFBA00"/>
</svg>
