<svg width="40" height="40" viewBox="0 0 23 23" fill="none" xmlns="http://www.w3.org/2000/svg">
<path d="M9.77598 16.2575V12.2408H8.46936V10.0632H9.92116V9.43404C9.92116 8.17582 9.92116 6.67563 11.373 6.1917C11.7117 6.09491 12.0021 6.04652 12.3408 5.99812C12.6796 5.94973 13.0183 5.94973 13.3571 5.94973C13.4055 5.94973 14.3733 5.90134 14.3733 5.94973V8.17582C14.3733 8.17582 13.5506 8.17582 13.4539 8.17582C13.1151 8.17582 12.728 8.22421 12.5344 8.56296C12.3892 8.80493 12.3408 9.14368 12.2924 9.43404C12.2924 9.48244 12.2924 10.0632 12.3408 10.0632H14.1314V12.2892H12.3408V16.2091H9.77598V16.2575Z" fill="white"/>
<circle cx="11.0102" cy="11.0102" r="10.4547" stroke="white" stroke-width="1.11111"/>
</svg>
