<svg width="40" height="40" viewBox="0 0 23 23" fill="none" xmlns="http://www.w3.org/2000/svg">
<path d="M13.7206 6.11279H9.12322C7.57463 6.11279 6.31641 7.37102 6.31641 8.9196V13.517C6.31641 15.0655 7.57463 16.3238 9.12322 16.3238H13.7206C15.2692 16.3238 16.5274 15.0655 16.5274 13.517V8.96799C16.5758 7.41941 15.3175 6.11279 13.7206 6.11279ZM15.6563 13.5654C15.6563 14.63 14.7852 15.5011 13.7206 15.5011H9.12322C8.05856 15.5011 7.18749 14.63 7.18749 13.5654V8.96799C7.18749 7.90334 8.05856 7.03226 9.12322 7.03226H13.7206C14.7852 7.03226 15.6563 7.90334 15.6563 8.96799V13.5654Z" fill="white"/>
<path d="M11.4461 8.62964C9.99425 8.62964 8.78442 9.79108 8.78442 11.2913C8.78442 12.7431 9.94586 13.9529 11.4461 13.9529C12.8978 13.9529 14.1077 12.7915 14.1077 11.2913C14.1077 9.79108 12.8978 8.62964 11.4461 8.62964ZM11.4461 12.985C10.4782 12.985 9.70389 12.2107 9.70389 11.2429C9.70389 10.275 10.4782 9.50072 11.4461 9.50072C12.4139 9.50072 13.1882 10.275 13.1882 11.2429C13.1882 12.2107 12.4139 12.985 11.4461 12.985Z" fill="white"/>
<path d="M14.2046 7.85559C14.011 7.85559 13.8659 7.90398 13.7207 8.04916C13.5755 8.19434 13.5271 8.33952 13.5271 8.5331C13.5271 8.72667 13.5755 8.87185 13.7207 9.01703C13.8659 9.16221 14.011 9.2106 14.2046 9.2106C14.3982 9.2106 14.5434 9.16221 14.6885 9.01703C14.8337 8.87185 14.8821 8.72667 14.8821 8.5331C14.8821 8.33952 14.8337 8.19434 14.6885 8.04916C14.5434 7.90398 14.3498 7.85559 14.2046 7.85559Z" fill="white"/>
<circle cx="11.398" cy="11.0102" r="10.4547" stroke="white" stroke-width="1.11111"/>
</svg>
