<svg width="40" height="40" viewBox="0 0 23 23" fill="none" xmlns="http://www.w3.org/2000/svg">
<path d="M15.3488 12.0652V15.5979H13.3163V12.3072C13.3163 11.4845 13.026 10.9038 12.3001 10.9038C11.7194 10.9038 11.3806 11.2909 11.2354 11.6297C11.187 11.7749 11.187 11.92 11.187 12.1136V15.5495H9.15451C9.15451 15.5495 9.2029 9.98431 9.15451 9.40359H11.187V10.2747C11.4774 9.83913 11.9613 9.25841 13.026 9.25841C14.3326 9.30681 15.3488 10.1779 15.3488 12.0652ZM7.0252 6.5C6.3477 6.5 5.86377 6.93554 5.86377 7.56465C5.86377 8.14537 6.29931 8.6293 6.97682 8.6293C7.70271 8.6293 8.13825 8.14537 8.13825 7.56465C8.13825 6.93554 7.70271 6.5 7.0252 6.5ZM5.96055 15.5495H7.99307V9.45199H5.96055V15.5495Z" fill="white"/>
<circle cx="11.1938" cy="11.0102" r="10.4547" stroke="white" stroke-width="1.11111"/>
</svg>
