<svg width="40" height="40" viewBox="0 0 23 23" fill="none" xmlns="http://www.w3.org/2000/svg">
<path d="M16.5242 8.49364C16.2338 8.63882 15.8467 8.784 15.4595 8.784C15.8467 8.54203 16.137 8.20328 16.2822 7.76774C15.9434 7.96131 15.5079 8.15488 15.1208 8.20328C14.782 7.86452 14.2981 7.62256 13.7657 7.62256C12.7495 7.62256 11.9268 8.44524 11.9268 9.4615C11.9268 9.60668 11.9268 9.75186 11.9752 9.89704C10.4266 9.80025 9.0716 9.07436 8.15213 7.96131C8.00695 8.25167 7.91016 8.54203 7.91016 8.88078C7.91016 9.50989 8.24891 10.0906 8.73285 10.4294C8.44249 10.4294 8.15213 10.3326 7.91016 10.1874C7.91016 11.1069 8.53927 11.8328 9.41035 12.0263C9.26517 12.0747 9.0716 12.0747 8.92642 12.0747C8.82963 12.0747 8.68445 12.0747 8.58767 12.0263C8.82963 12.7522 9.50714 13.2846 10.3298 13.333C9.70071 13.8169 8.87803 14.1073 8.00695 14.1073C7.86177 14.1073 7.71659 14.1073 7.57141 14.1073C8.3941 14.6396 9.36196 14.9299 10.4266 14.9299C13.8141 14.9299 15.7015 12.1231 15.7015 9.65507V9.41311C15.9918 9.21954 16.2822 8.88078 16.5242 8.49364Z" fill="white"/>
<circle cx="11.8061" cy="11.0102" r="10.4547" stroke="white" stroke-width="1.11111"/>
</svg>
