<svg width="40" height="40" viewBox="0 0 23 23" fill="none" xmlns="http://www.w3.org/2000/svg">
<mask id="path-1-inside-1_28_437" fill="white">
<path d="M15.5215 7.30772C15.1828 6.96896 14.7472 6.77539 14.2633 6.77539H8.31094C7.827 6.77539 7.39146 6.96896 7.05271 7.30772C6.71396 7.64647 6.52039 8.08201 6.52039 8.56594V14.5183C6.52039 15.0022 6.71396 15.4378 7.05271 15.7765C7.39146 16.1153 7.827 16.3089 8.31094 16.3089H14.2633C14.7472 16.3089 15.1828 16.1153 15.5215 15.7765C15.8603 15.4378 16.0539 15.0022 16.0539 14.5183V8.56594C16.0539 8.08201 15.8603 7.64647 15.5215 7.30772ZM12.5695 8.1304V9.82416C12.5695 9.92095 12.5695 9.96934 12.5695 9.96934C12.5695 10.0177 12.6179 10.0661 12.6663 10.0661C12.7631 10.0661 12.8115 10.0177 12.9083 9.87256V8.1304H13.3438V10.4049H12.9083V10.2113C12.7631 10.4049 12.5695 10.5017 12.4244 10.5017C12.2792 10.5017 12.1824 10.4533 12.134 10.3565C12.0856 10.2597 12.0856 10.1629 12.0856 10.0177V8.1304H12.5695ZM10.5854 8.90469C10.5854 8.66273 10.6338 8.46915 10.7306 8.37237C10.8274 8.22719 11.021 8.1304 11.2145 8.1304C11.4081 8.1304 11.5533 8.22719 11.6985 8.37237C11.7952 8.46915 11.8436 8.66273 11.8436 8.90469V9.72738C11.8436 9.96934 11.7952 10.1629 11.6985 10.2597C11.6017 10.4049 11.4081 10.5017 11.2145 10.5017C11.021 10.5017 10.8274 10.4049 10.7306 10.2597C10.6338 10.1629 10.5854 9.96934 10.5854 9.72738V8.90469ZM9.47237 7.35611L9.81112 8.56594L10.1499 7.35611H10.6338L10.0531 9.19505V10.4533H9.61755V9.19505C9.56916 8.95309 9.47237 8.66273 9.32719 8.22719C9.2304 7.93683 9.18202 7.79165 9.18202 7.79165L9.03684 7.35611H9.47237ZM14.5537 14.8571C14.5053 15.0506 14.4085 15.1958 14.3117 15.2926C14.1665 15.4378 14.0213 15.4862 13.8278 15.4862C13.247 15.5346 12.4244 15.583 11.2629 15.583C10.1499 15.583 9.2788 15.5346 8.69808 15.4862C8.50451 15.4862 8.35933 15.3894 8.21415 15.2926C8.06897 15.1474 7.97218 15.0022 7.97218 14.8571C7.8754 14.5183 7.827 13.986 7.827 13.2601C7.827 12.5342 7.8754 12.0019 7.97218 11.6631C8.02058 11.4695 8.11736 11.3244 8.21415 11.2276C8.35933 11.0824 8.50451 11.034 8.69808 11.034C9.2788 10.9856 10.1015 10.9372 11.2629 10.9372C12.4244 10.9372 13.247 10.9856 13.8278 11.034C14.0213 11.034 14.1665 11.1308 14.3117 11.2276C14.4569 11.3727 14.5537 11.5179 14.6021 11.6631C14.6988 12.0019 14.6988 12.5342 14.6988 13.2601C14.6988 13.9376 14.6504 14.4699 14.5537 14.8571Z"/>
<path d="M8.8917 12.0986V14.7119H9.32724V12.0986H9.81117V11.6631H8.35938V12.0986H8.8917Z"/>
<path d="M10.6822 14.1793C10.5854 14.3245 10.4886 14.3729 10.4402 14.3729C10.3918 14.3729 10.3434 14.3245 10.3434 14.2761C10.3434 14.2761 10.3434 14.2277 10.3434 14.1309V12.4371H9.9563V14.2277C9.9563 14.3729 9.9563 14.518 10.0047 14.5664C10.0531 14.6632 10.1499 14.76 10.2467 14.76C10.3918 14.76 10.537 14.6632 10.7306 14.4696V14.7116H11.1661V12.4371H10.7306V14.1793H10.6822Z"/>
<path d="M12.2792 12.389C12.134 12.389 11.9888 12.4858 11.8436 12.631V11.6631H11.4081V14.7119H11.8436V14.4699C11.9888 14.6151 12.134 14.7119 12.2792 14.7119C12.4243 14.7119 12.5695 14.6151 12.6179 14.4699C12.6663 14.3731 12.6663 14.2279 12.6663 14.0344V13.1149C12.6663 12.8729 12.6663 12.7277 12.6179 12.6793C12.5211 12.4858 12.4243 12.389 12.2792 12.389ZM12.2308 14.0344C12.2308 14.2279 12.1824 14.3247 12.0372 14.3247C11.9888 14.3247 11.892 14.2763 11.8436 14.2279V12.8245C11.892 12.7761 11.9888 12.7277 12.0372 12.7277C12.134 12.7277 12.2308 12.8245 12.2308 13.0181V14.0344Z"/>
<path d="M13.7792 14.0341C13.7792 14.0825 13.7792 14.1309 13.7792 14.1309C13.7792 14.1793 13.7792 14.1793 13.7792 14.1793C13.7308 14.2761 13.6824 14.3245 13.5857 14.3245C13.4405 14.3245 13.3921 14.2277 13.3921 13.9857V13.5986H14.2148V13.1146C14.2148 12.8727 14.1664 12.6791 14.0696 12.5823C13.9728 12.4371 13.7792 12.3403 13.5857 12.3403C13.3921 12.3403 13.1985 12.4371 13.1017 12.5823C13.0049 12.6791 12.9565 12.8727 12.9565 13.1146V13.8889C12.9565 14.1309 13.0049 14.3245 13.1017 14.4212C13.1985 14.5664 13.3921 14.6632 13.5857 14.6632C13.8276 14.6632 13.9728 14.5664 14.0696 14.4212C14.118 14.3245 14.1664 14.2761 14.1664 14.1793C14.1664 14.1309 14.1664 14.0341 14.1664 13.8889V13.8405H13.7308V14.0341H13.7792ZM13.3437 13.0662C13.3437 12.8727 13.3921 12.7275 13.5373 12.7275C13.6824 12.7275 13.7308 12.8243 13.7308 13.0662V13.2598H13.3437V13.0662Z"/>
<path d="M11.2146 10.114C11.3598 10.114 11.4081 10.0172 11.4081 9.77524V8.80738C11.4081 8.61381 11.3598 8.46863 11.2146 8.46863C11.0694 8.46863 11.021 8.56541 11.021 8.80738V9.77524C11.021 9.96882 11.0694 10.114 11.2146 10.114Z"/>
<path d="M22.6122 11.0102C22.6122 17.091 17.6828 22.0204 11.602 22.0204C5.52123 22.0204 0.591797 17.091 0.591797 11.0102C0.591797 4.92944 5.52123 0 11.602 0C17.6828 0 22.6122 4.92944 22.6122 11.0102Z"/>
</mask>
<path d="M15.5215 7.30772C15.1828 6.96896 14.7472 6.77539 14.2633 6.77539H8.31094C7.827 6.77539 7.39146 6.96896 7.05271 7.30772C6.71396 7.64647 6.52039 8.08201 6.52039 8.56594V14.5183C6.52039 15.0022 6.71396 15.4378 7.05271 15.7765C7.39146 16.1153 7.827 16.3089 8.31094 16.3089H14.2633C14.7472 16.3089 15.1828 16.1153 15.5215 15.7765C15.8603 15.4378 16.0539 15.0022 16.0539 14.5183V8.56594C16.0539 8.08201 15.8603 7.64647 15.5215 7.30772ZM12.5695 8.1304V9.82416C12.5695 9.92095 12.5695 9.96934 12.5695 9.96934C12.5695 10.0177 12.6179 10.0661 12.6663 10.0661C12.7631 10.0661 12.8115 10.0177 12.9083 9.87256V8.1304H13.3438V10.4049H12.9083V10.2113C12.7631 10.4049 12.5695 10.5017 12.4244 10.5017C12.2792 10.5017 12.1824 10.4533 12.134 10.3565C12.0856 10.2597 12.0856 10.1629 12.0856 10.0177V8.1304H12.5695ZM10.5854 8.90469C10.5854 8.66273 10.6338 8.46915 10.7306 8.37237C10.8274 8.22719 11.021 8.1304 11.2145 8.1304C11.4081 8.1304 11.5533 8.22719 11.6985 8.37237C11.7952 8.46915 11.8436 8.66273 11.8436 8.90469V9.72738C11.8436 9.96934 11.7952 10.1629 11.6985 10.2597C11.6017 10.4049 11.4081 10.5017 11.2145 10.5017C11.021 10.5017 10.8274 10.4049 10.7306 10.2597C10.6338 10.1629 10.5854 9.96934 10.5854 9.72738V8.90469ZM9.47237 7.35611L9.81112 8.56594L10.1499 7.35611H10.6338L10.0531 9.19505V10.4533H9.61755V9.19505C9.56916 8.95309 9.47237 8.66273 9.32719 8.22719C9.2304 7.93683 9.18202 7.79165 9.18202 7.79165L9.03684 7.35611H9.47237ZM14.5537 14.8571C14.5053 15.0506 14.4085 15.1958 14.3117 15.2926C14.1665 15.4378 14.0213 15.4862 13.8278 15.4862C13.247 15.5346 12.4244 15.583 11.2629 15.583C10.1499 15.583 9.2788 15.5346 8.69808 15.4862C8.50451 15.4862 8.35933 15.3894 8.21415 15.2926C8.06897 15.1474 7.97218 15.0022 7.97218 14.8571C7.8754 14.5183 7.827 13.986 7.827 13.2601C7.827 12.5342 7.8754 12.0019 7.97218 11.6631C8.02058 11.4695 8.11736 11.3244 8.21415 11.2276C8.35933 11.0824 8.50451 11.034 8.69808 11.034C9.2788 10.9856 10.1015 10.9372 11.2629 10.9372C12.4244 10.9372 13.247 10.9856 13.8278 11.034C14.0213 11.034 14.1665 11.1308 14.3117 11.2276C14.4569 11.3727 14.5537 11.5179 14.6021 11.6631C14.6988 12.0019 14.6988 12.5342 14.6988 13.2601C14.6988 13.9376 14.6504 14.4699 14.5537 14.8571Z" fill="white"/>
<path d="M8.8917 12.0986V14.7119H9.32724V12.0986H9.81117V11.6631H8.35938V12.0986H8.8917Z" fill="white"/>
<path d="M10.6822 14.1793C10.5854 14.3245 10.4886 14.3729 10.4402 14.3729C10.3918 14.3729 10.3434 14.3245 10.3434 14.2761C10.3434 14.2761 10.3434 14.2277 10.3434 14.1309V12.4371H9.9563V14.2277C9.9563 14.3729 9.9563 14.518 10.0047 14.5664C10.0531 14.6632 10.1499 14.76 10.2467 14.76C10.3918 14.76 10.537 14.6632 10.7306 14.4696V14.7116H11.1661V12.4371H10.7306V14.1793H10.6822Z" fill="white"/>
<path d="M12.2792 12.389C12.134 12.389 11.9888 12.4858 11.8436 12.631V11.6631H11.4081V14.7119H11.8436V14.4699C11.9888 14.6151 12.134 14.7119 12.2792 14.7119C12.4243 14.7119 12.5695 14.6151 12.6179 14.4699C12.6663 14.3731 12.6663 14.2279 12.6663 14.0344V13.1149C12.6663 12.8729 12.6663 12.7277 12.6179 12.6793C12.5211 12.4858 12.4243 12.389 12.2792 12.389ZM12.2308 14.0344C12.2308 14.2279 12.1824 14.3247 12.0372 14.3247C11.9888 14.3247 11.892 14.2763 11.8436 14.2279V12.8245C11.892 12.7761 11.9888 12.7277 12.0372 12.7277C12.134 12.7277 12.2308 12.8245 12.2308 13.0181V14.0344Z" fill="white"/>
<path d="M13.7792 14.0341C13.7792 14.0825 13.7792 14.1309 13.7792 14.1309C13.7792 14.1793 13.7792 14.1793 13.7792 14.1793C13.7308 14.2761 13.6824 14.3245 13.5857 14.3245C13.4405 14.3245 13.3921 14.2277 13.3921 13.9857V13.5986H14.2148V13.1146C14.2148 12.8727 14.1664 12.6791 14.0696 12.5823C13.9728 12.4371 13.7792 12.3403 13.5857 12.3403C13.3921 12.3403 13.1985 12.4371 13.1017 12.5823C13.0049 12.6791 12.9565 12.8727 12.9565 13.1146V13.8889C12.9565 14.1309 13.0049 14.3245 13.1017 14.4212C13.1985 14.5664 13.3921 14.6632 13.5857 14.6632C13.8276 14.6632 13.9728 14.5664 14.0696 14.4212C14.118 14.3245 14.1664 14.2761 14.1664 14.1793C14.1664 14.1309 14.1664 14.0341 14.1664 13.8889V13.8405H13.7308V14.0341H13.7792ZM13.3437 13.0662C13.3437 12.8727 13.3921 12.7275 13.5373 12.7275C13.6824 12.7275 13.7308 12.8243 13.7308 13.0662V13.2598H13.3437V13.0662Z" fill="white"/>
<path d="M11.2146 10.114C11.3598 10.114 11.4081 10.0172 11.4081 9.77524V8.80738C11.4081 8.61381 11.3598 8.46863 11.2146 8.46863C11.0694 8.46863 11.021 8.56541 11.021 8.80738V9.77524C11.021 9.96882 11.0694 10.114 11.2146 10.114Z" fill="white"/>
<path d="M15.5215 7.30772C15.1828 6.96896 14.7472 6.77539 14.2633 6.77539H8.31094C7.827 6.77539 7.39146 6.96896 7.05271 7.30772C6.71396 7.64647 6.52039 8.08201 6.52039 8.56594V14.5183C6.52039 15.0022 6.71396 15.4378 7.05271 15.7765C7.39146 16.1153 7.827 16.3089 8.31094 16.3089H14.2633C14.7472 16.3089 15.1828 16.1153 15.5215 15.7765C15.8603 15.4378 16.0539 15.0022 16.0539 14.5183V8.56594C16.0539 8.08201 15.8603 7.64647 15.5215 7.30772ZM12.5695 8.1304V9.82416C12.5695 9.92095 12.5695 9.96934 12.5695 9.96934C12.5695 10.0177 12.6179 10.0661 12.6663 10.0661C12.7631 10.0661 12.8115 10.0177 12.9083 9.87256V8.1304H13.3438V10.4049H12.9083V10.2113C12.7631 10.4049 12.5695 10.5017 12.4244 10.5017C12.2792 10.5017 12.1824 10.4533 12.134 10.3565C12.0856 10.2597 12.0856 10.1629 12.0856 10.0177V8.1304H12.5695ZM10.5854 8.90469C10.5854 8.66273 10.6338 8.46915 10.7306 8.37237C10.8274 8.22719 11.021 8.1304 11.2145 8.1304C11.4081 8.1304 11.5533 8.22719 11.6985 8.37237C11.7952 8.46915 11.8436 8.66273 11.8436 8.90469V9.72738C11.8436 9.96934 11.7952 10.1629 11.6985 10.2597C11.6017 10.4049 11.4081 10.5017 11.2145 10.5017C11.021 10.5017 10.8274 10.4049 10.7306 10.2597C10.6338 10.1629 10.5854 9.96934 10.5854 9.72738V8.90469ZM9.47237 7.35611L9.81112 8.56594L10.1499 7.35611H10.6338L10.0531 9.19505V10.4533H9.61755V9.19505C9.56916 8.95309 9.47237 8.66273 9.32719 8.22719C9.2304 7.93683 9.18202 7.79165 9.18202 7.79165L9.03684 7.35611H9.47237ZM14.5537 14.8571C14.5053 15.0506 14.4085 15.1958 14.3117 15.2926C14.1665 15.4378 14.0213 15.4862 13.8278 15.4862C13.247 15.5346 12.4244 15.583 11.2629 15.583C10.1499 15.583 9.2788 15.5346 8.69808 15.4862C8.50451 15.4862 8.35933 15.3894 8.21415 15.2926C8.06897 15.1474 7.97218 15.0022 7.97218 14.8571C7.8754 14.5183 7.827 13.986 7.827 13.2601C7.827 12.5342 7.8754 12.0019 7.97218 11.6631C8.02058 11.4695 8.11736 11.3244 8.21415 11.2276C8.35933 11.0824 8.50451 11.034 8.69808 11.034C9.2788 10.9856 10.1015 10.9372 11.2629 10.9372C12.4244 10.9372 13.247 10.9856 13.8278 11.034C14.0213 11.034 14.1665 11.1308 14.3117 11.2276C14.4569 11.3727 14.5537 11.5179 14.6021 11.6631C14.6988 12.0019 14.6988 12.5342 14.6988 13.2601C14.6988 13.9376 14.6504 14.4699 14.5537 14.8571Z" stroke="white" stroke-width="2.22222" mask="url(#path-1-inside-1_28_437)"/>
<path d="M8.8917 12.0986V14.7119H9.32724V12.0986H9.81117V11.6631H8.35938V12.0986H8.8917Z" stroke="white" stroke-width="2.22222" mask="url(#path-1-inside-1_28_437)"/>
<path d="M10.6822 14.1793C10.5854 14.3245 10.4886 14.3729 10.4402 14.3729C10.3918 14.3729 10.3434 14.3245 10.3434 14.2761C10.3434 14.2761 10.3434 14.2277 10.3434 14.1309V12.4371H9.9563V14.2277C9.9563 14.3729 9.9563 14.518 10.0047 14.5664C10.0531 14.6632 10.1499 14.76 10.2467 14.76C10.3918 14.76 10.537 14.6632 10.7306 14.4696V14.7116H11.1661V12.4371H10.7306V14.1793H10.6822Z" stroke="white" stroke-width="2.22222" mask="url(#path-1-inside-1_28_437)"/>
<path d="M12.2792 12.389C12.134 12.389 11.9888 12.4858 11.8436 12.631V11.6631H11.4081V14.7119H11.8436V14.4699C11.9888 14.6151 12.134 14.7119 12.2792 14.7119C12.4243 14.7119 12.5695 14.6151 12.6179 14.4699C12.6663 14.3731 12.6663 14.2279 12.6663 14.0344V13.1149C12.6663 12.8729 12.6663 12.7277 12.6179 12.6793C12.5211 12.4858 12.4243 12.389 12.2792 12.389ZM12.2308 14.0344C12.2308 14.2279 12.1824 14.3247 12.0372 14.3247C11.9888 14.3247 11.892 14.2763 11.8436 14.2279V12.8245C11.892 12.7761 11.9888 12.7277 12.0372 12.7277C12.134 12.7277 12.2308 12.8245 12.2308 13.0181V14.0344Z" stroke="white" stroke-width="2.22222" mask="url(#path-1-inside-1_28_437)"/>
<path d="M13.7792 14.0341C13.7792 14.0825 13.7792 14.1309 13.7792 14.1309C13.7792 14.1793 13.7792 14.1793 13.7792 14.1793C13.7308 14.2761 13.6824 14.3245 13.5857 14.3245C13.4405 14.3245 13.3921 14.2277 13.3921 13.9857V13.5986H14.2148V13.1146C14.2148 12.8727 14.1664 12.6791 14.0696 12.5823C13.9728 12.4371 13.7792 12.3403 13.5857 12.3403C13.3921 12.3403 13.1985 12.4371 13.1017 12.5823C13.0049 12.6791 12.9565 12.8727 12.9565 13.1146V13.8889C12.9565 14.1309 13.0049 14.3245 13.1017 14.4212C13.1985 14.5664 13.3921 14.6632 13.5857 14.6632C13.8276 14.6632 13.9728 14.5664 14.0696 14.4212C14.118 14.3245 14.1664 14.2761 14.1664 14.1793C14.1664 14.1309 14.1664 14.0341 14.1664 13.8889V13.8405H13.7308V14.0341H13.7792ZM13.3437 13.0662C13.3437 12.8727 13.3921 12.7275 13.5373 12.7275C13.6824 12.7275 13.7308 12.8243 13.7308 13.0662V13.2598H13.3437V13.0662Z" stroke="white" stroke-width="2.22222" mask="url(#path-1-inside-1_28_437)"/>
<path d="M11.2146 10.114C11.3598 10.114 11.4081 10.0172 11.4081 9.77524V8.80738C11.4081 8.61381 11.3598 8.46863 11.2146 8.46863C11.0694 8.46863 11.021 8.56541 11.021 8.80738V9.77524C11.021 9.96882 11.0694 10.114 11.2146 10.114Z" stroke="white" stroke-width="2.22222" mask="url(#path-1-inside-1_28_437)"/>
<path d="M22.6122 11.0102C22.6122 17.091 17.6828 22.0204 11.602 22.0204C5.52123 22.0204 0.591797 17.091 0.591797 11.0102C0.591797 4.92944 5.52123 0 11.602 0C17.6828 0 22.6122 4.92944 22.6122 11.0102Z" stroke="white" stroke-width="2.22222" mask="url(#path-1-inside-1_28_437)"/>
</svg>
